<svg width="120" height="120" viewBox="0 0 120 120" fill="none" xmlns="http://www.w3.org/2000/svg">
<rect width="120" height="120" rx="22" fill="#7956D8"/>
<path d="M57.9408 87.9012C57.886 87.8683 57.8312 87.8464 57.7983 87.8135C57.8531 87.8464 57.897 87.8683 57.9408 87.9012Z" fill="url(#paint0_linear_19_4782)"/>
<path d="M46.0423 36.1618C42.555 36.1728 39.8902 33.5189 39.8682 30.0316C39.8353 26.7308 42.566 24.0221 45.9326 24.0001C49.4199 23.9782 52.1396 26.665 52.1177 30.1084C52.0738 33.4312 49.3541 36.1618 46.0423 36.1618Z" fill="white"/>
<path d="M74.6317 36.0741C71.3856 36.118 68.6659 33.4531 68.6001 30.1852C68.5453 26.8404 71.265 24.0769 74.6207 24.0879C77.8777 24.0988 80.5645 26.8075 80.5645 30.0645C80.5645 33.3106 77.8777 36.0302 74.6317 36.0741Z" fill="white"/>
<path d="M57.8092 87.8135C57.8531 87.8354 57.897 87.8683 57.9518 87.9012C57.886 87.8683 57.8421 87.8354 57.8092 87.8135Z" fill="url(#paint1_linear_19_4782)"/>
<path d="M93.4828 63.9397C92.7481 69.8505 89.7323 75.3228 85.8064 79.7642C83.6021 82.2755 81.2553 84.5126 78.7769 86.5085C78.5795 86.651 78.3821 86.7826 78.1957 86.9252C73.6556 90.0396 68.9839 92.7374 63.9723 95.0074C63.5227 95.2158 63.0621 95.4132 62.6125 95.6106C61.9106 95.9176 61.1211 96.0273 60.3315 95.9944C59.5638 95.9615 58.7852 95.797 58.0724 95.5448C57.6009 95.3693 57.1403 95.1939 56.6797 95.0184C51.2075 92.8799 46.3055 90.0835 41.8751 86.5194C39.3857 84.5236 37.0499 82.2864 34.8457 79.7751C30.9307 75.3228 27.9039 69.8505 27.1692 63.9506C27.0376 62.8979 26.9828 61.8341 27.0047 60.7704C27.1034 56.2522 28.6277 51.6464 31.2925 47.9178C32.5537 46.1193 34.089 44.5401 35.8655 43.2571C35.8765 43.2461 35.8875 43.2461 35.8984 43.2351C36.699 42.6539 37.5543 42.1495 38.4426 41.7108C41.2719 40.3071 44.4632 39.682 47.6544 39.7149H47.6873C50.045 39.7369 52.4028 40.1317 54.607 40.8225C55.3966 41.0748 56.1752 41.3599 56.9209 41.6779C57.1732 41.7876 58.1382 42.2262 58.3466 42.314C59.0155 42.621 59.6735 42.95 60.3205 43.3009C61.0333 43.6628 61.7242 44.0576 62.4261 44.4414C65.1567 45.9548 67.986 47.7423 71.0566 48.488C71.1224 48.499 71.1992 48.5209 71.2649 48.5319C72.2519 48.7622 73.2499 48.9377 74.2478 49.0364C76.5507 49.2886 78.8756 49.1899 81.1566 48.6964C81.2005 48.6854 81.2443 48.6745 81.2882 48.6635H81.2992C82.999 48.0823 83.7337 47.5011 83.7337 47.5011C83.7337 47.5011 83.7337 47.4901 83.7227 47.4791C83.7118 47.4572 83.6898 47.4462 83.6789 47.4243C83.6679 47.4133 83.6569 47.4024 83.646 47.3914C82.8783 46.5251 77.5487 41.0199 66.023 40.8116C65.6721 40.8006 65.2993 40.8006 64.9374 40.8116C64.9374 40.8116 68.4466 39.6491 72.9428 39.7149C72.9538 39.7149 72.9647 39.7149 72.9757 39.7149C74.7852 39.7369 76.7701 39.9672 78.744 40.5484C78.7988 40.5594 78.8537 40.5703 78.9085 40.5923C80.5864 41.1735 82.7138 41.963 84.7316 43.2461C84.7426 43.2571 84.7536 43.2571 84.7645 43.268C86.3985 44.2989 87.9448 45.6587 89.1511 47.4791C89.2608 47.6107 89.3266 47.7643 89.3595 47.9178C89.4253 48.2139 89.3375 48.5429 89.1182 48.7841C86.7495 51.427 83.9421 53.2365 80.6522 54.2673C79.8078 54.5415 78.9195 54.7608 78.0093 54.9253C72.6577 55.9232 66.2972 54.2893 61.4062 52.2056C61.0333 52.0521 60.6605 51.8876 60.3096 51.7341C55.7366 49.7601 52.8305 48.3564 49.3651 48.5319C48.422 48.5758 47.446 48.7403 46.3823 49.0364C46.2507 49.0693 46.1081 49.1131 45.9765 49.157C43.0266 50.0562 41.1732 51.8657 39.9669 54.2564C39.3199 55.5394 38.8484 56.998 38.4865 58.5881C38.0259 60.6607 38.333 64.4003 38.958 66.4181C42.1602 76.7155 48.9155 82.5386 57.7105 87.7696C57.7105 87.7696 57.7105 87.7696 57.7215 87.7806C57.7325 87.7915 57.7544 87.8025 57.7873 87.8135C58.0066 87.9451 58.2369 88.0657 58.4672 88.1644C58.9497 88.3728 59.5638 88.5702 60.2986 88.625C61.132 88.6908 62.119 88.5702 63.2595 88.0767C63.3143 88.0547 63.3582 88.0328 63.413 88.0109C63.424 87.9999 63.4459 87.9999 63.4569 87.9889C63.5117 87.967 63.5775 87.9451 63.6324 87.9122C63.6433 87.9122 63.6433 87.9122 63.6543 87.9012C71.7584 84.4468 76.7152 82.0671 84.622 75.1254C87.4184 72.7128 91.5637 67.9314 93.4828 63.9397Z" fill="white"/>
<defs>
<linearGradient id="paint0_linear_19_4782" x1="33.9737" y1="113.787" x2="112.686" y2="28.389" gradientUnits="userSpaceOnUse">
<stop stop-color="#475DFF"/>
<stop offset="0.9919" stop-color="#FF5CFF"/>
</linearGradient>
<linearGradient id="paint1_linear_19_4782" x1="33.9736" y1="113.787" x2="112.686" y2="28.389" gradientUnits="userSpaceOnUse">
<stop stop-color="#475DFF"/>
<stop offset="0.9919" stop-color="#FF5CFF"/>
</linearGradient>
</defs>
</svg>
