<svg width="628" height="472" viewBox="0 0 628 472" fill="none" xmlns="http://www.w3.org/2000/svg">
<g clip-path="url(#clip0_1046_9624)">
<path d="M511.628 164.463C511.628 197.418 499.339 230.374 474.718 255.514L296.376 429.891L118.078 255.514C93.4568 230.374 81.168 197.418 81.168 164.463C81.168 131.508 93.4568 98.5529 118.078 73.4123C167.321 23.1311 247.133 23.1311 296.376 73.4123C345.619 23.1311 425.431 23.1311 474.674 73.4123C499.339 98.5975 511.628 131.508 511.628 164.463Z" fill="#F7EFFF"/>
<path d="M83.748 192.685C84.404 193.399 84.8414 193.935 84.8414 193.935C84.8414 193.935 84.404 193.444 83.748 192.685Z" fill="#E1C1E0"/>
<path d="M231.302 222.693V222.738L229.815 223.139L229.552 223.229V222.827H229.815L231.302 222.693Z" fill="#A5A9F2"/>
<path d="M229.858 246.494C229.815 246.494 229.815 246.494 229.771 246.494C229.771 245.467 229.771 244.35 229.815 243.189L229.858 246.494Z" fill="#A5A9F2"/>
<path d="M231.302 222.693V222.782L229.815 223.184C229.815 223.05 229.815 222.961 229.815 222.827L231.302 222.693Z" fill="#A5A9F2"/>
<path d="M324.977 240.376L332.193 281.235C301.536 298.383 230.427 288.559 230.427 288.559L229.859 246.494L229.815 243.189C229.859 237.608 229.902 230.641 229.771 223.139L231.258 222.738V222.648L229.727 222.782H229.509V223.184L222.555 225.06C222.555 225.06 214.727 218.227 218.444 179.556C222.205 140.886 243.328 133.741 243.328 133.741L243.022 134.991C243.372 134.812 243.678 134.723 243.984 134.723C244.072 134.723 244.159 134.723 244.203 134.723C244.334 134.723 244.465 134.723 244.596 134.679C250.85 134.232 255.486 133.473 257.716 133.071C258.547 132.937 259.072 132.803 259.203 132.803L255.53 163.659L289.422 132.714L310.02 139.635C311.464 140.126 312.863 140.662 314.262 141.243C314.481 141.332 314.656 141.421 314.875 141.511C327.295 147.003 337.397 156.827 343.388 169.197L360.838 214.164C360.969 214.164 352.266 236.089 324.977 240.376Z" fill="#A5A9F2"/>
<path d="M231.302 222.738L229.815 223.139C229.902 230.641 229.902 237.608 229.859 243.189L229.596 223.229V222.827H229.815L231.345 222.693L231.302 222.738Z" fill="#A5A9F2"/>
<path d="M325.895 284.182C325.895 284.182 333.33 322.362 327.47 373.179C321.61 423.996 322.484 439.402 322.484 439.402H241.492C241.492 439.402 227.716 325.801 234.757 270.473L325.895 284.182Z" fill="#24174C"/>
<path d="M230.164 90.1578C230.427 91.4974 230.864 92.7478 231.345 93.9981L237.162 108.556C240.704 117.308 248.663 122.845 257.322 123.515L258.022 126.596L259.422 132.758L257.716 146.825H274.072L289.641 132.758C289.203 132.535 284.918 130.168 279.801 117.844C276.259 109.404 278.401 103.108 280.326 99.6692C280.282 99.6692 280.282 99.6692 280.282 99.6692C280.107 99.6692 280.02 99.6246 279.845 99.6246C278.708 99.446 277.571 99.0887 276.477 98.5975C275.909 98.3296 275.384 98.0617 274.859 97.7491C274.728 97.7044 274.64 97.6151 274.553 97.5705C273.766 97.1239 273.066 96.5434 272.41 95.9183C273.285 96.1862 274.159 96.4541 275.122 96.4988C276.084 96.8114 277.133 97.0346 278.227 97.0346C279.713 97.0346 281.113 96.722 282.337 96.0969C284.524 95.0698 286.23 93.1943 287.148 90.9616C287.192 90.8723 287.235 90.7383 287.279 90.649C287.323 90.5597 287.367 90.4704 287.367 90.3811C287.367 90.3364 287.41 90.2918 287.41 90.2471C287.454 90.1578 287.454 90.0685 287.498 89.9792C287.76 89.0861 287.891 88.193 287.891 87.2552C287.891 81.8074 283.562 77.3419 278.183 77.3419C277.439 77.3419 276.74 77.4312 276.04 77.5652L275.34 75.8236C275.034 75.0645 274.728 74.3947 274.378 73.6802C273.022 71.0009 271.229 68.7236 269.13 66.8481C265.675 63.6776 261.39 61.6681 256.798 61.0429C256.754 60.9983 256.71 60.9983 256.623 60.9983C253.999 60.5964 251.287 60.6857 248.62 61.2662C247.22 61.5341 245.777 62.0253 244.421 62.6059C241.754 63.6776 239.392 65.2405 237.38 67.1606C236.243 68.2323 235.194 69.3934 234.319 70.6437C234.144 70.9116 233.925 71.1796 233.794 71.4028L233.751 71.4475C232.57 73.2337 231.608 75.1985 230.952 77.2526C230.514 78.5476 230.208 79.8426 229.99 81.2269C229.377 83.9955 229.465 87.1213 230.164 90.1578Z" fill="#FFE3E0"/>
<path d="M282.075 96.0969L282.206 96.8114L282.819 99.8479C282.862 98.5082 282.775 97.2133 282.556 95.8736C282.425 95.9183 282.25 96.0076 282.075 96.0969Z" fill="#FFE3E0"/>
<path d="M259.203 131.955L258.022 126.641L258.285 126.417L261.827 123.515C261.346 123.56 260.909 123.604 260.427 123.604C259.378 123.649 258.328 123.649 257.279 123.56H257.235C250.894 123.068 244.946 119.942 240.835 114.896C241.448 115.745 242.628 117.531 243.328 119.585C244.203 122.131 243.547 124.944 241.71 126.909C240.792 127.846 239.698 129.231 238.605 130.972C238.605 130.972 238.605 131.017 238.561 131.017C236.156 135.214 239.742 140.35 244.421 139.501C253.955 137.715 259.334 132.803 259.334 132.803L259.203 131.955Z" fill="#24174C"/>
<path d="M272.235 95.7843C272.891 96.4095 273.591 96.99 274.378 97.4812C274.466 97.5258 274.553 97.6151 274.684 97.6598C275.209 97.9724 275.734 98.285 276.302 98.5082C277.396 99.0441 278.577 99.3567 279.714 99.5353C278.533 99.3567 277.44 98.9994 276.346 98.5082C275.778 98.2403 275.253 97.9724 274.728 97.6598C274.597 97.6151 274.509 97.5258 274.422 97.4812C273.635 96.99 272.935 96.4095 272.235 95.7843C272.279 95.7843 272.235 95.7843 272.235 95.7843Z" fill="#24174C"/>
<path d="M257.716 146.825H274.028L255.661 163.615L257.716 146.825Z" fill="white"/>
<path d="M247.352 104.983C247.483 104.983 247.57 104.939 247.702 104.939C248.226 104.76 248.533 104.135 248.358 103.599L246.521 97.9277C246.346 97.3919 245.734 97.0793 245.209 97.2579C244.684 97.4365 244.378 98.0617 244.553 98.5975L246.39 104.269C246.521 104.715 246.914 104.983 247.352 104.983Z" fill="#24174C"/>
<path d="M247.789 92.7478C248.401 92.7031 248.838 92.2119 248.838 91.6314C248.838 91.5868 248.794 88.6842 250.631 87.7911C252.381 86.9427 253.649 88.327 253.78 88.5056C254.174 88.9521 254.83 88.9968 255.267 88.5949C255.704 88.193 255.748 87.5232 255.354 87.0766C254.523 86.0942 252.293 84.6206 249.713 85.871C246.564 87.3892 246.739 91.5421 246.739 91.7207C246.739 92.3012 247.22 92.7478 247.789 92.7478Z" fill="#24174C"/>
<path d="M235.806 99.178C236.418 99.1334 236.856 98.6422 236.856 98.0617C236.856 98.017 236.812 95.695 238.299 94.9359C239.654 94.266 240.704 95.3377 240.791 95.4717C241.185 95.9183 241.841 95.9629 242.278 95.561C242.716 95.1591 242.759 94.4893 242.366 94.0428C241.622 93.1943 239.654 91.8547 237.38 92.971C234.625 94.3107 234.756 97.9724 234.756 98.1063C234.756 98.7315 235.237 99.178 235.806 99.178Z" fill="#24174C"/>
<path d="M249.67 110.476C249.757 110.476 249.888 110.431 249.976 110.431C250.151 110.386 254.961 108.734 256.273 104.269C256.448 103.688 256.098 103.108 255.573 102.929C255.005 102.75 254.436 103.108 254.261 103.644C253.299 106.993 249.363 108.377 249.32 108.377C248.795 108.556 248.489 109.181 248.664 109.717C248.839 110.208 249.232 110.476 249.67 110.476Z" fill="#24174C"/>
<path d="M309.277 145.53C305.253 149.593 300.661 157.81 301.58 173.841C301.842 178.708 302.236 184.067 302.629 189.693C302.192 188.398 301.93 187.058 301.842 185.719C301.536 181.566 301.274 177.592 301.099 173.93C300.574 164.999 301.492 152.764 308.971 145.217C310.895 143.252 312.863 142.047 314.437 141.287C314.656 141.377 314.831 141.466 315.049 141.555C313.388 142.27 311.288 143.475 309.277 145.53Z" fill="#24174C"/>
<path d="M260.384 191.569C260.384 194.426 262.658 196.704 265.413 196.704C268.212 196.704 270.442 194.382 270.442 191.569C270.442 189.47 269.218 187.684 267.512 186.88C268.081 185.228 268.824 183.218 269.786 180.896C272.454 174.555 277.483 164.508 286.405 152.719C293.14 143.743 295.763 136.063 294.233 129.99C293.314 126.462 288.985 122.131 287.367 120.88L287.848 123.068C289.116 124.229 292.265 127.802 292.921 130.347C294.364 136.018 291.828 143.297 285.355 151.871C276.346 163.793 271.229 173.975 268.518 180.36C267.512 182.772 266.725 184.826 266.156 186.478C265.894 186.433 265.632 186.433 265.369 186.433C262.614 186.433 260.384 188.711 260.384 191.569Z" fill="#24174C"/>
<path d="M237.687 188.309L238.867 188.353L239.961 188.309C240.004 187.416 240.617 180.003 246.083 179.467C247.22 179.378 248.182 179.646 249.013 180.405C251.331 182.504 252.075 187.505 252.162 189.291H252.249H252.293L252.337 189.023L253.474 189.202L254.48 189.157C254.436 188.889 254.086 181.789 250.588 178.663C249.626 177.815 248.576 177.324 247.395 177.19C247.264 177.19 247.133 177.145 247.002 177.145C247.002 177.145 247.002 177.145 247.002 177.1C247.701 171.206 250.85 145.574 253.124 137.179C254.436 132.49 256.579 129.633 258.241 127.98L257.891 126.417C255.792 128.248 253.299 131.463 251.812 136.822C249.451 145.53 246.302 171.563 245.646 177.19V177.234C245.471 177.279 245.252 177.279 245.077 177.324C239.567 178.485 237.818 184.915 237.687 188.309Z" fill="#24174C"/>
<path d="M246.958 177.145C246.958 177.19 246.958 177.19 246.958 177.145C247.089 177.19 247.22 177.19 247.352 177.234V177.19C247.22 177.19 247.089 177.145 246.958 177.145Z" fill="#24174C"/>
<path d="M245.034 177.324C245.209 177.279 245.384 177.234 245.602 177.234V177.19C245.427 177.234 245.209 177.234 245.034 177.324Z" fill="#24174C"/>
<path d="M247.177 214.253C247.964 214.432 248.62 215.012 248.926 215.771C250.194 214.03 251.025 212.02 251.375 209.877L254.611 189.47L253.474 189.291L252.337 189.113L252.293 189.381L249.101 209.52C248.839 211.172 248.139 212.824 247.177 214.253Z" fill="#F3E9E7"/>
<path d="M237.73 188.398L238.343 211.619C238.386 213.36 238.78 215.057 239.436 216.62C239.873 215.95 240.617 215.548 241.448 215.548C240.923 214.298 240.661 212.914 240.617 211.574L240.005 188.353H239.961L238.868 188.398H237.73Z" fill="#F3E9E7"/>
<path d="M252.337 189.068L252.293 189.336L253.43 189.247H253.474L252.337 189.068Z" fill="#24174C"/>
<path d="M238.867 188.398L239.961 188.443V188.398H238.867Z" fill="#24174C"/>
<path d="M274.028 179.958L273.547 182.459L294.014 185.362L294.626 183.04L274.028 179.958Z" fill="#F3E9E7"/>
<path d="M272.279 95.7843C273.154 96.0969 274.029 96.3202 274.947 96.4541C274.903 96.4095 274.86 96.4095 274.772 96.4095C273.941 96.2755 273.11 96.0969 272.279 95.7843Z" fill="#24174C"/>
<path d="M230.165 90.1132C231.958 86.9427 232.483 83.2363 231.695 79.7533C232.439 79.1728 233.095 78.5476 233.707 77.8778C235.063 76.3149 236.025 74.484 236.637 72.6532C236.637 72.6085 236.681 72.6085 236.681 72.5639C240.617 73.8142 244.903 73.4123 248.576 71.4922C249.32 71.0903 250.107 70.6437 250.763 70.1079C251.506 71.3135 252.425 72.3852 253.518 73.3677C258.372 77.7438 266.288 81.0036 272.148 79.1728C273.766 77.8778 275.822 77.1633 278.052 77.1633C279.67 77.1633 281.244 77.5652 282.6 78.3243C280.545 72.9658 276.478 68.5003 276.303 68.277C276.303 68.277 269.524 59.8373 256.71 59.8373C254.874 59.8373 252.818 60.0159 250.675 60.4178C249.888 60.5964 249.101 60.7304 248.27 60.9536C248.226 60.9983 248.095 60.9983 248.051 60.9983C248.008 60.9983 248.008 60.9983 248.008 60.9983C246.827 61.2662 245.602 61.6681 244.422 62.204C241.71 63.3203 239.305 64.8833 237.293 66.8481C236.112 67.9198 234.319 70.4651 234.319 70.5544C234.188 70.733 234.057 70.9116 233.969 71.0903C233.926 71.1796 233.838 71.2689 233.751 71.3582C232.57 73.1444 231.608 75.1092 230.952 77.1633C230.515 78.4583 230.208 79.7533 229.99 81.1376C229.421 83.9508 229.465 87.032 230.165 90.1132Z" fill="#24174C"/>
<path d="M272.279 95.829C272.935 96.4541 273.635 97.0346 274.422 97.4812C274.51 97.5258 274.597 97.6151 274.728 97.6598C275.253 97.9724 275.778 98.285 276.346 98.5082C277.44 99.0441 278.577 99.3567 279.714 99.5353C279.889 99.5799 279.976 99.5799 280.151 99.5799C280.195 99.5799 280.195 99.5799 280.195 99.5799C278.271 102.974 276.172 109.315 279.67 117.754C284.656 129.722 288.81 132.312 289.466 132.669L289.51 132.624L310.108 139.591C311.551 140.082 312.994 140.618 314.35 141.198C314.569 141.287 314.744 141.377 314.962 141.466C316.974 142.359 318.898 143.342 320.779 144.458C320.473 137.447 311.77 132.267 309.365 127.846C309.321 127.802 309.321 127.668 309.233 127.623C309.19 127.578 309.19 127.578 309.19 127.578C307.047 123.158 309.583 120.344 307.921 116.058C306.216 111.726 304.51 112.932 300.88 108.243C297.251 103.554 299.394 101.143 296.857 96.9453C296.157 95.8736 295.37 94.9805 294.539 94.3107C294.539 94.3107 294.495 94.266 294.364 94.1321C294.014 93.8195 293.183 93.105 292.09 92.078C292.046 92.078 292.046 92.0333 292.046 92.0333L290.997 90.9616L290.953 91.0062C289.904 89.9792 288.766 88.7735 287.673 87.5232C287.498 91.2742 285.268 94.4893 282.119 96.0076C280.851 96.6327 279.495 96.9453 278.008 96.9453C276.915 96.9453 275.865 96.7667 274.903 96.4095C274.029 96.3201 273.154 96.0969 272.279 95.829Z" fill="#24174C"/>
<path d="M246.652 219.165C248.004 219.165 249.101 218.046 249.101 216.665C249.101 215.283 248.004 214.164 246.652 214.164C245.299 214.164 244.203 215.283 244.203 216.665C244.203 218.046 245.299 219.165 246.652 219.165Z" fill="#24174C"/>
<path d="M241.492 220.549C242.844 220.549 243.941 219.43 243.941 218.049C243.941 216.668 242.844 215.548 241.492 215.548C240.139 215.548 239.042 216.668 239.042 218.049C239.042 219.43 240.139 220.549 241.492 220.549Z" fill="#24174C"/>
<path d="M245.602 134.634C245.602 134.634 227.672 158.345 228.765 194.873C228.765 194.873 226.753 183.843 230.427 169.018C234.1 154.193 238.911 142.181 244.727 134.723L245.602 134.634Z" fill="#24174C"/>
<path d="M350.954 227.962C350.954 227.962 350.648 269.625 347.543 300.526H334.685L325.021 240.376C325.021 240.376 342.032 238.277 350.954 227.962Z" fill="#FFE3E0"/>
<path d="M334.686 300.526C334.686 300.526 331.45 307.09 332.193 312.806C332.98 318.522 334.686 319.638 334.686 319.638C334.686 319.638 333.636 323.032 335.735 323.612C337.835 324.193 339.059 323.032 339.059 323.032C339.059 323.032 340.109 324.282 342.251 323.791C344.394 323.3 344.875 322.407 344.875 322.407C344.875 322.407 346.494 323.479 347.806 322.987C349.118 322.496 349.861 321.558 349.861 321.558C349.861 321.558 351.173 321.871 351.829 319.638C352.485 317.405 351.26 306.019 347.587 300.526C343.87 295.033 334.686 300.526 334.686 300.526Z" fill="#FFE3E0"/>
<path d="M97.0864 232.963C97.0864 233.008 97.1302 233.097 97.1302 233.187C97.1302 233.142 97.1302 233.053 97.0864 232.963Z" fill="#E1C1E0"/>
<path d="M191.724 35.7684C191.724 44.878 198.939 52.246 207.861 52.246C210.835 52.246 213.677 51.3975 216.083 49.9239L225.135 55.1485L220.281 46.2623C222.599 43.4044 224.042 39.7427 224.042 35.7237C224.042 26.6142 216.826 19.2462 207.905 19.2462C198.94 19.3355 191.724 26.7035 191.724 35.7684Z" fill="#E086A6"/>
<path d="M198.896 33.9822C198.896 35.2325 199.421 36.3489 200.252 37.1527L207.424 44.8333L214.596 37.1527C215.427 36.3489 215.952 35.2325 215.952 33.9822C215.952 32.7765 215.471 31.6602 214.727 30.901C213.94 30.1419 212.89 29.6507 211.71 29.6507C210.529 29.6507 209.436 30.1419 208.692 30.901C207.949 31.7048 207.468 32.7765 207.468 33.9822C207.468 32.7765 206.987 31.6602 206.243 30.901C205.456 30.1419 204.406 29.6507 203.226 29.6507C202.045 29.6507 200.951 30.1419 200.208 30.901C199.377 31.7048 198.896 32.7765 198.896 33.9822Z" fill="white"/>
<path d="M283.474 472.045H198.764L196.534 451.95L189.581 472.045H129.536C128.705 443.242 131.372 413.994 133.603 395.551L134.171 396.087C134.171 396.087 188.487 416.673 237.03 408.233C281.9 400.374 281.9 391.175 281.9 391.175L281.506 387.245C288.854 437.303 283.474 472.045 283.474 472.045Z" fill="#CFC2F5"/>
<path d="M315.618 420.915C313.737 421.54 312.032 420.558 312.032 420.558C312.032 420.558 310.939 422.165 308.577 422.657C306.215 423.148 304.51 421.406 304.51 421.406L302.717 422.21C300.443 423.282 297.469 421.897 297.469 421.897C294.889 423.148 292.308 420.379 292.308 420.379V416.271C292.308 415.646 292.046 415.065 291.652 414.619C291.259 414.217 290.69 413.949 290.034 413.949C288.985 413.949 288.11 413.056 288.11 411.984V407.519C288.504 402.026 291.478 398.722 293.445 397.159L277.221 318.165C277.221 318.165 292.44 306.42 307.44 301.285C307.44 301.285 313.169 350.495 310.72 388.898L310.064 396.578C311.463 398.096 315.356 402.696 316.318 406.76C317.498 411.761 317.498 420.29 315.618 420.915Z" fill="#E1C1E0"/>
<path d="M344.919 433.284V472.045H254.523L255.529 433.106C255.66 429.578 258.591 426.765 262.22 426.765H279.626V420.022C279.626 412.029 290.778 414.083 290.778 414.083C293.314 415.378 292.265 418.861 292.265 418.861C292.265 418.861 286.448 418.236 284.961 419.218C283.474 420.156 284.218 426.809 284.218 426.809H321.084C321.084 426.809 321.784 420.156 320.341 419.218C319.729 418.861 318.46 418.727 317.149 418.682C317.411 417.387 317.498 415.646 317.455 413.86C320.735 413.86 325.633 414.753 325.633 420.022V426.765H338.228C341.901 426.72 344.919 429.667 344.919 433.284Z" fill="#24174C"/>
<g opacity="0.5">
<path d="M299.306 446.368C298.518 446.368 297.862 445.743 297.862 444.895C297.862 444.091 298.475 443.466 299.262 443.466C300.049 443.466 300.705 444.091 300.705 444.895C300.705 445.743 300.093 446.368 299.306 446.368Z" fill="#CFC2F5"/>
<path d="M305.953 446.368C305.209 446.368 304.553 445.743 304.553 444.984C304.553 444.18 305.165 443.555 305.953 443.555C306.696 443.555 307.308 444.18 307.308 444.984C307.308 445.698 306.696 446.368 305.953 446.368Z" fill="#CFC2F5"/>
<path d="M310.326 452.977C310.151 454.361 309.451 455.656 308.533 456.728C308.008 457.309 307.483 457.844 306.915 458.336C306.871 458.38 306.827 458.38 306.784 458.425C305.734 459.184 304.641 459.809 303.504 460.345C303.416 460.39 303.285 460.434 303.198 460.479C303.023 460.568 302.848 460.568 302.673 460.568C302.498 460.568 302.323 460.524 302.148 460.479C302.017 460.434 301.929 460.39 301.842 460.345C300.574 459.854 299.437 459.184 298.387 458.336C297.818 457.844 297.25 457.353 296.769 456.728C295.85 455.656 295.151 454.361 294.976 452.977C294.932 452.709 294.932 452.486 294.932 452.218C294.932 451.146 295.326 450.075 295.938 449.181C296.244 448.78 296.594 448.378 296.988 448.065C297.162 447.931 297.381 447.797 297.556 447.708C298.212 447.395 298.956 447.217 299.699 447.217C300.224 447.217 300.792 447.306 301.317 447.485C301.492 447.529 301.667 447.619 301.842 447.708C301.886 447.752 302.104 447.842 302.192 447.842C302.367 447.931 302.498 447.976 302.629 448.065C302.804 448.154 302.935 448.244 303.11 448.333C303.766 448.69 304.422 449.137 305.122 449.271H305.166C305.384 449.315 305.647 449.36 305.865 449.405C306.39 449.449 306.959 449.449 307.483 449.315C307.483 449.315 307.483 449.315 307.527 449.315C307.921 449.181 308.096 449.047 308.096 449.047C307.921 448.824 306.696 447.529 303.985 447.485C303.897 447.485 303.81 447.485 303.722 447.485C303.722 447.485 304.553 447.217 305.559 447.217C305.996 447.217 306.434 447.261 306.915 447.395H306.959C307.352 447.529 307.833 447.708 308.314 448.02C308.708 448.288 309.058 448.601 309.32 449.003C309.364 449.047 309.364 449.047 309.364 449.092C309.364 449.181 309.364 449.226 309.32 449.315C308.752 449.941 308.139 450.387 307.352 450.61C307.177 450.655 306.959 450.744 306.74 450.789C305.515 451.012 304.028 450.655 302.891 450.164C302.804 450.119 302.717 450.075 302.629 450.03C301.579 449.583 300.88 449.226 300.093 449.271C299.874 449.271 299.655 449.315 299.393 449.405C299.349 449.405 299.349 449.405 299.305 449.449C298.606 449.673 298.212 450.075 297.906 450.655C297.775 450.968 297.644 451.325 297.556 451.682C297.469 452.173 297.512 453.066 297.687 453.558C298.431 456.014 300.005 457.398 302.061 458.604C302.104 458.648 302.148 458.648 302.235 458.693C302.367 458.738 302.498 458.782 302.673 458.782C302.848 458.782 303.11 458.782 303.373 458.648H303.416H303.46C305.34 457.844 306.478 457.264 308.314 455.612C308.927 455.031 309.889 453.915 310.326 452.977Z" fill="#CFC2F5"/>
</g>
<path d="M236.987 408.188C188.443 416.628 134.128 396.042 134.128 396.042L133.559 395.507L133.865 392.202C159.58 399.213 230.252 415.646 267.862 396.757C272.935 394.212 277.745 390.55 281.506 387.201L281.9 391.13C281.9 391.175 281.9 400.374 236.987 408.188Z" fill="#24174C"/>
<path d="M277.177 318.209L289.422 379.431C289.422 379.431 279.32 390.996 267.862 396.757C221.374 420.067 124.2 389.389 124.2 389.389L131.81 320.085C112.48 313.163 103.121 295.837 103.121 295.837L116.897 263.418C122.189 250.423 134.171 237.608 147.072 232.74L174.099 222.604L176.636 221.666L186.169 218.093L186.257 218.049L187.481 223.497L187.569 248.459L218.838 217.826L220.281 218.004L221.943 218.183L246.345 221.041C249.188 221.353 251.943 221.934 254.655 222.782C255.879 223.05 275.646 227.917 292.396 253.013L315.749 297.623C315.749 297.713 300.661 303.295 277.177 318.209Z" fill="#7956D8"/>
<path d="M180.747 196.168C180.965 196.257 181.184 196.302 181.359 196.347L182.408 201.169L187.481 223.541L187.613 248.503L218.881 217.87L212.015 186.835C216.389 185.853 219.8 182.102 220.281 177.368C220.674 173.305 218.838 169.554 215.776 167.41L215.951 166.919C216.738 164.374 217.088 161.829 217.088 159.328C217.088 148.432 210.179 138.34 199.464 134.902C186.257 130.704 172.219 138.251 168.108 151.737L164.303 164.151C160.148 177.636 167.539 191.97 180.747 196.168Z" fill="#E1C1E0"/>
<path d="M181.359 196.257L182.452 201.169L194.391 196.436C190.237 197.508 185.732 197.508 181.359 196.257Z" fill="#24174C"/>
<path d="M176.242 165.178C176.592 165.178 176.898 164.999 177.029 164.686L179.303 160.623C179.566 160.176 179.435 159.596 178.954 159.328C178.516 159.06 177.948 159.194 177.685 159.685L175.411 163.749C175.149 164.195 175.28 164.776 175.761 165.044C175.892 165.133 176.067 165.178 176.242 165.178Z" fill="#24174C"/>
<path d="M189.187 161.114C189.624 161.114 190.062 160.757 190.105 160.31C190.236 159.283 189.93 157.14 187.831 156.202C185.251 155.086 182.933 157.408 182.802 157.452C182.452 157.81 182.408 158.39 182.758 158.792C183.108 159.149 183.677 159.194 184.07 158.837C184.114 158.792 185.644 157.318 187.088 157.944C188.443 158.524 188.268 159.998 188.268 160.042C188.225 160.534 188.531 161.025 189.056 161.114C189.099 161.114 189.099 161.114 189.187 161.114Z" fill="#24174C"/>
<path d="M178.385 157.051C178.822 157.051 179.26 156.693 179.303 156.247C179.435 155.354 179.172 153.433 177.292 152.63C175.018 151.647 172.962 153.657 172.875 153.746C172.525 154.103 172.481 154.684 172.831 155.086C173.181 155.443 173.749 155.488 174.143 155.13C174.187 155.086 175.455 153.925 176.548 154.416C177.554 154.862 177.467 155.979 177.467 156.068C177.423 156.559 177.773 157.051 178.254 157.095C178.341 157.051 178.385 157.051 178.385 157.051Z" fill="#24174C"/>
<path d="M178.035 170.447C178.91 170.447 179.784 170.313 180.703 169.866C181.184 169.643 181.359 169.063 181.14 168.616C180.921 168.125 180.353 167.946 179.916 168.17C177.554 169.286 174.799 167.678 174.755 167.678C174.318 167.41 173.749 167.544 173.487 168.036C173.224 168.482 173.356 169.063 173.837 169.331C173.88 169.331 175.761 170.447 178.035 170.447Z" fill="#24174C"/>
<path d="M163.997 136.911C163.997 140.394 166.752 143.208 170.163 143.208C171.388 143.208 172.569 142.85 173.531 142.181C174.712 145.44 177.773 147.807 181.359 147.807C183.502 147.807 185.426 147.003 186.913 145.664C188.312 148.477 191.111 150.352 194.391 150.352C197.496 150.352 200.208 148.611 201.607 146.11C202.832 147.048 204.275 147.628 205.893 147.762C205.805 148.254 205.762 148.745 205.762 149.281C205.762 150.531 206.024 151.692 206.549 152.719C206.286 152.674 206.068 152.63 205.762 152.63C203.313 152.63 201.388 154.639 201.388 157.095C201.388 159.507 203.225 161.471 205.587 161.561C205.018 162.32 204.668 163.258 204.668 164.285C204.668 165.088 204.975 165.669 205.324 166.339C206.986 165.535 208.779 165.356 210.747 165.58C214.158 165.937 217.045 167.902 218.75 170.715C219.363 170.804 220.019 170.849 220.674 170.849C225.266 170.849 229.027 167.053 229.027 162.32C229.027 160.266 228.328 158.39 227.103 156.917C227.191 156.515 227.234 156.068 227.234 155.622C227.234 154.728 227.059 153.925 226.753 153.166C227.978 151.737 228.765 149.906 228.765 147.852C228.765 143.833 225.835 140.528 222.074 140.082C222.249 139.635 222.336 139.144 222.336 138.653C222.336 136.152 220.368 134.187 217.963 134.187C217.613 134.187 217.263 134.232 216.957 134.321C216.17 133.25 214.902 132.58 213.459 132.58C212.934 132.58 212.453 132.669 212.015 132.848C211.359 132.312 210.66 131.865 209.873 131.508C210.047 131.017 210.179 130.481 210.179 129.856C210.179 127.4 208.211 125.39 205.805 125.39C204.625 125.39 203.531 125.882 202.744 126.641C202.394 122.265 198.808 118.826 194.435 118.826C192.423 118.826 190.586 119.541 189.143 120.791C188.356 119.987 187.263 119.541 186.082 119.541C184.464 119.541 183.064 120.434 182.277 121.773C181.14 121.193 179.872 120.88 178.56 120.88C173.968 120.88 170.207 124.676 170.207 129.409C170.207 129.9 170.251 130.347 170.338 130.794H170.12C166.752 130.615 163.997 133.428 163.997 136.911Z" fill="#24174C"/>
<path d="M163.822 158.346C164.391 160.891 165.79 162.677 167.671 163.436C168.283 163.704 168.895 163.793 169.595 163.793C173.05 163.793 176.811 160.534 178.604 155.666C178.735 155.309 178.822 154.996 178.954 154.639C179.391 154.282 180.353 153.657 180.79 153.88C181.14 154.059 181.315 154.728 181.272 155.756C181.184 155.934 181.14 156.068 181.097 156.247C180.353 158.256 179.96 160.355 179.96 162.364C179.96 163.704 180.134 164.954 180.441 166.205C181.315 169.286 183.152 171.563 185.645 172.501C186.519 172.858 187.394 173.037 188.356 173.037C192.817 173.037 197.496 169.241 199.639 163.436C199.683 163.347 199.727 163.213 199.77 163.124L205.281 166.428L206.243 165.937L200.077 162.23C200.951 159.239 201.039 156.157 200.295 153.523C199.421 150.442 197.584 148.164 195.091 147.226C192.598 146.289 189.756 146.691 187.088 148.432C185.033 149.772 183.283 151.781 182.015 154.193C181.84 153.657 181.578 153.3 181.184 153.076C180.572 152.808 179.872 153.032 179.304 153.344C180.353 148.388 178.822 143.833 175.455 142.538C171.607 141.064 166.665 144.503 164.522 150.308C163.516 152.987 163.254 155.889 163.822 158.346ZM181.927 156.649C182.54 155.041 183.327 153.612 184.289 152.362C185.251 151.111 186.344 150.04 187.569 149.236C189.1 148.209 190.761 147.673 192.336 147.673C193.167 147.673 193.998 147.807 194.785 148.12C197.015 149.013 198.677 150.977 199.464 153.835C200.251 156.693 200.033 159.998 198.852 163.213C196.447 169.732 190.674 173.528 186.038 171.742C183.808 170.849 182.146 168.884 181.359 166.026C180.528 163.124 180.747 159.819 181.927 156.649ZM165.44 150.531C167.102 146.065 170.513 143.074 173.575 143.074C174.143 143.074 174.668 143.163 175.193 143.342C178.604 144.681 179.785 150.04 177.817 155.309C175.805 160.623 171.432 163.883 168.021 162.543C166.402 161.918 165.222 160.355 164.741 158.122C164.216 155.845 164.478 153.121 165.44 150.531Z" fill="white"/>
<path d="M199.683 256.184L197.802 259.712L222.686 260.962L223.648 257.702L199.683 256.184Z" fill="#F3E9E7"/>
<path d="M142.787 259.488L143.792 260.024L144.711 260.515L144.755 260.471C145.148 259.756 148.647 253.639 153.545 255.469C154.551 255.827 155.25 256.496 155.688 257.479C156.869 260.247 155.469 264.847 154.813 266.41L154.901 266.454L155.906 266.901L156.825 267.303C156.956 267.035 159.449 260.828 157.656 256.63C157.175 255.514 156.475 254.666 155.513 254.041C155.338 253.951 155.163 253.817 154.988 253.728C158.312 248.369 170.775 228.498 176.023 222.425C179.041 218.853 182.19 217.334 184.245 216.665C184.77 216.486 185.338 216.352 185.776 216.263L185.513 214.968C183.064 215.325 179.478 216.441 175.061 221.577C169.638 227.918 156.912 248.191 153.763 253.281C153.676 253.237 153.545 253.237 153.457 253.192C148.341 251.808 144.274 256.586 142.787 259.488Z" fill="#24174C"/>
<path d="M152.758 254.13L154.551 255.38C154.857 254.934 155.163 254.442 155.469 253.951C155.076 253.683 154.682 253.505 154.245 253.326C153.982 253.192 153.676 253.147 153.414 253.058C153.239 253.415 153.02 253.773 152.758 254.13Z" fill="#24174C"/>
<path d="M141.475 287.532C141.475 287.576 141.475 287.621 141.475 287.665C143.224 286.683 144.754 285.299 145.892 283.647L156.781 267.482L154.988 266.231L144.098 282.396C143.18 283.736 141.956 284.897 140.556 285.701C141.125 286.058 141.475 286.728 141.475 287.532Z" fill="#F3E9E7"/>
<path d="M132.991 284.54C133.341 284.316 133.734 284.227 134.172 284.227C134.521 284.227 134.871 284.316 135.177 284.45C135.221 283.155 135.527 281.86 136.052 280.655L144.799 260.515L142.831 259.622L134.084 279.762C133.384 281.235 133.034 282.887 132.991 284.54Z" fill="#F3E9E7"/>
<path d="M181.752 291.372C181.752 294.766 184.464 297.534 187.788 297.534C191.111 297.534 193.823 294.766 193.823 291.372C193.823 288.871 192.379 286.728 190.28 285.79C190.936 283.825 191.811 281.414 193.035 278.601C196.228 271.054 202.307 259.042 212.934 244.886C221.024 234.169 224.129 224.97 222.293 217.602C221.199 213.405 219.188 211.172 217.307 209.698L217.963 212.735C219.45 214.164 219.931 215.012 220.718 218.049C222.467 224.881 219.406 233.544 211.709 243.815C200.951 258.104 194.828 270.25 191.592 277.886C190.368 280.744 189.449 283.245 188.793 285.209C188.487 285.165 188.181 285.12 187.875 285.12C184.464 285.254 181.752 287.978 181.752 291.372Z" fill="#24174C"/>
<path d="M139.157 289.898C140.437 289.898 141.475 288.839 141.475 287.532C141.475 286.224 140.437 285.165 139.157 285.165C137.877 285.165 136.839 286.224 136.839 287.532C136.839 288.839 137.877 289.898 139.157 289.898Z" fill="#24174C"/>
<path d="M134.171 288.916C135.451 288.916 136.489 287.856 136.489 286.549C136.489 285.242 135.451 284.182 134.171 284.182C132.891 284.182 131.854 285.242 131.854 286.549C131.854 287.856 132.891 288.916 134.171 288.916Z" fill="#24174C"/>
<path d="M307.79 304.545C307.79 304.545 292.177 307.894 277.439 319.594L277.221 318.165C277.221 318.165 290.734 306.778 307.44 301.285L307.79 304.545Z" fill="#24174C"/>
<path d="M93.7187 207.555C93.7187 207.555 91.5758 210.949 92.6253 214.923H92.1006C92.1006 214.923 91.532 212.869 92.0131 210.279C92.363 208.582 93.2813 207.064 93.2813 207.064L93.7187 207.555Z" fill="#F7EFFF"/>
<path d="M131.854 320.129L128.661 349.066C128.661 349.066 115.191 347.547 104.346 332.811C88.3397 311.109 83.0917 249.843 82.1734 241.001C81.255 232.472 77.975 221.755 73.4268 213.762L73.3831 213.673L72.1586 211.44V211.395L66.7795 201.616C66.6046 201.303 66.5171 200.946 66.5171 200.589C66.5171 199.874 66.9107 199.16 67.5667 198.758C68.5288 198.222 69.7096 198.535 70.3218 199.428L73.8204 204.965L68.7037 193.444C68.6163 193.132 68.5725 192.819 68.5725 192.551C68.5725 191.479 69.141 190.497 70.1032 190.006C71.5026 189.291 73.2082 189.872 73.9079 191.301L77.975 198.669L73.9079 188.309C73.8642 188.086 73.8204 187.862 73.8204 187.639C73.8204 186.21 74.7825 184.915 76.2257 184.602C77.7564 184.245 79.287 185.183 79.7681 186.701L86.0218 204.206L84.841 187.416C84.841 186.612 85.1472 185.897 85.672 185.362C86.1968 184.826 86.8965 184.513 87.6399 184.513C89.0831 184.513 90.3076 185.63 90.4388 187.103C90.4388 187.103 93.5438 207.332 93.7625 207.51C93.7625 207.51 94.0249 196.659 97.7859 197.418C97.7859 197.418 100.541 197.195 100.191 203.849C99.7976 210.502 100.541 213.36 101.022 215.727C101.853 219.701 100.279 224.702 100.235 227.382C100.147 231.133 100.497 233.544 101.153 236.625C101.984 240.51 103.034 244.306 104.346 248.101C113.967 276.323 124.594 316.646 124.594 316.646L131.854 320.129Z" fill="#E1C1E0"/>
<path d="M133.997 392.202C133.865 393.229 133.734 394.256 133.603 395.373L133.909 392.202C133.909 392.202 133.953 392.202 133.997 392.202Z" fill="#24174C"/>
<path d="M389.614 138.653C389.176 139.01 388.695 139.367 388.214 139.724V139.769C388.039 139.858 387.821 139.992 387.602 140.082C386.028 140.886 384.41 141.466 382.748 141.823L388.214 142.582V157.631L385.241 164.419L383.885 167.5L377.369 182.414C377.15 182.414 376.931 182.459 376.713 182.459L367.179 167.5L362.631 160.355L360.881 157.631V143.431C362.981 141.689 364.642 139.367 365.561 136.688C365.911 135.706 366.129 134.679 366.261 133.651C366.304 133.16 366.348 132.669 366.348 132.178C366.348 132.044 366.348 131.91 366.348 131.731C366.348 130.615 366.217 129.543 365.998 128.516C365.736 129.811 365.298 131.017 364.73 132.133C364.468 132.624 364.205 133.16 363.855 133.607C363.112 134.723 362.237 135.795 361.188 136.643C361.056 136.733 360.925 136.867 360.794 136.956V138.697C360.357 138.876 359.919 139.01 359.482 139.144C354.715 140.26 349.992 137.268 348.855 132.446V132.401C350.473 131.017 351.785 129.32 352.747 127.4C352.922 126.998 353.316 126.149 353.316 126.149C358.345 122.532 360.051 114.986 358.564 108.511C358.345 107.528 358.039 106.546 357.601 105.653C358.214 104.269 358.564 102.795 358.651 101.232C361.712 99.0887 363.855 95.7843 364.555 92.0333C364.599 92.0333 364.599 92.0333 364.642 92.0333C366.348 92.3459 368.185 92.3459 369.978 91.8993C370.809 91.7207 371.596 91.4081 372.339 91.0956C374.745 93.1943 377.85 94.3553 381.086 94.266C381.961 95.0698 382.791 95.9183 383.579 96.9007L392.413 107.886C400.066 117.219 398.754 130.972 389.614 138.653Z" fill="#FFE3E0"/>
<path d="M360.969 143.386V136.956C361.1 136.867 361.231 136.733 361.362 136.643C362.368 135.75 363.287 134.723 364.03 133.607C364.336 133.116 364.642 132.624 364.905 132.133C365.473 131.017 365.911 129.767 366.173 128.516C366.392 129.543 366.523 130.615 366.523 131.731C366.523 131.865 366.523 131.999 366.523 132.178C366.523 132.669 366.479 133.16 366.435 133.651C366.304 134.723 366.085 135.706 365.736 136.688C364.73 139.323 363.068 141.689 360.969 143.386Z" fill="#FFE3E0"/>
<path d="M376.1 90.9169C377.937 91.7654 379.686 92.8817 381.217 94.3107C377.981 94.4 374.876 93.1943 372.47 91.1402C371.727 91.4975 370.94 91.7654 370.109 91.944C368.316 92.3905 366.479 92.3905 364.773 92.078C364.73 92.078 364.73 92.078 364.686 92.078C363.986 95.7843 361.843 99.1334 358.782 101.277C358.695 102.84 358.345 104.313 357.732 105.698C358.126 106.591 358.432 107.528 358.695 108.556C360.181 115.03 358.476 122.622 353.447 126.194C353.447 126.194 353.097 127.043 352.878 127.444C351.916 129.365 350.604 131.062 348.986 132.446C348.374 129.677 349.073 126.909 350.691 124.81L350.604 124.721C350.167 124.185 349.773 123.604 349.38 123.024C347.893 120.791 347.062 118.29 346.318 115.834C343.257 105.653 348.767 98.4636 350.385 96.5434C351.216 95.5164 352.178 94.5786 353.228 93.6855C355.24 91.9887 357.47 90.7383 359.788 89.9345C361.1 89.4433 362.805 89.354 364.161 89.1754C364.423 89.1308 364.73 89.0861 364.992 89.0861H365.036C365.648 89.0414 366.217 88.9968 366.829 88.9968H366.873C367.135 88.9968 367.354 88.9968 367.616 88.9968C367.703 88.9968 367.747 88.9968 367.835 88.9968C368.053 88.9968 368.272 88.9968 368.491 89.0414C368.797 89.0414 369.059 89.0861 369.365 89.1308C369.846 89.1754 370.327 89.2647 370.765 89.3094C370.896 89.354 371.071 89.354 371.202 89.3987C371.508 89.4433 371.771 89.5327 372.077 89.5773C372.208 89.622 372.383 89.6666 372.514 89.6666C373.083 89.8006 373.695 89.9792 374.263 90.2025C374.832 90.3811 375.488 90.6044 376.1 90.9169Z" fill="#FFE3E0"/>
<path d="M388.214 142.538L382.748 141.779C384.409 141.421 386.028 140.841 387.602 140.037C387.821 139.948 387.995 139.814 388.214 139.725V142.538Z" fill="#FFE3E0"/>
<path d="M388.214 139.725V142.538L382.748 141.779C384.409 141.421 386.028 140.841 387.602 140.037C387.821 139.948 388.039 139.858 388.214 139.725Z" fill="#24174C"/>
<path d="M381.217 94.3107C377.981 94.4 374.876 93.1943 372.47 91.1402C371.727 91.4974 370.94 91.7654 370.109 91.944C368.316 92.3905 366.479 92.3905 364.773 92.078C364.73 92.078 364.73 92.078 364.686 92.078C363.986 95.7843 361.843 99.1334 358.782 101.277C358.695 102.84 358.345 104.313 357.733 105.698C358.126 106.591 358.432 107.528 358.695 108.556C360.182 115.03 358.476 122.622 353.447 126.194C353.447 126.194 353.097 127.043 352.878 127.444C351.916 129.365 350.604 131.062 348.986 132.446C347.193 134.009 345.006 135.17 342.557 135.75C334.204 137.76 324.933 131.419 322.965 122.89C322.659 121.595 322.528 120.344 322.572 119.094C316.536 117.219 311.595 112.217 310.064 105.474C307.834 95.829 313.388 86.1389 322.572 83.3256C323.796 78.6816 327.382 74.8859 332.28 73.6802C337.397 72.4299 342.514 74.4394 345.575 78.369C346.799 77.4312 348.243 76.7167 349.861 76.3595C356.158 74.8412 362.456 78.8155 363.943 85.2458C364.249 86.4961 364.292 87.7465 364.205 88.9968C364.205 89.0414 364.205 89.0414 364.205 89.0861C364.38 89.0861 364.467 89.1307 365.08 89.0861C365.298 89.0861 365.604 89.0414 366.042 88.9968C367.135 88.9521 368.272 88.9521 369.365 89.0861C369.846 89.1307 370.328 89.2201 370.765 89.2647C370.896 89.3094 371.071 89.3094 371.202 89.354C371.508 89.3987 371.771 89.488 372.077 89.5326C372.208 89.5773 372.383 89.6219 372.514 89.6219C373.083 89.7559 373.695 89.9345 374.263 90.1578C374.919 90.3811 375.532 90.649 376.144 90.9169C377.937 91.7654 379.643 92.8817 381.217 94.3107Z" fill="#24174C"/>
<path d="M366.479 131.687C366.479 131.821 366.479 131.955 366.479 132.133C366.479 132.624 366.436 133.116 366.392 133.607C366.261 134.679 366.042 135.661 365.692 136.643C364.774 139.323 363.112 141.645 361.013 143.386V136.956C361.144 136.867 361.275 136.733 361.406 136.643C362.412 135.75 363.331 134.723 364.074 133.607C364.38 133.116 364.686 132.624 364.949 132.133C365.517 131.017 365.954 129.767 366.217 128.516C366.348 129.499 366.479 130.57 366.479 131.687Z" fill="#24174C"/>
<path d="M384.585 114.986C384.366 114.986 384.147 114.896 383.972 114.718L380.343 110.744C380.036 110.386 380.036 109.851 380.386 109.538C380.736 109.225 381.261 109.225 381.567 109.583L385.197 113.557C385.503 113.914 385.503 114.45 385.153 114.763C384.978 114.897 384.803 114.986 384.585 114.986Z" fill="#24174C"/>
<path d="M368.928 113.914C368.578 113.914 368.272 113.691 368.141 113.378C367.747 112.307 367.529 109.94 369.54 108.422C371.989 106.591 375.138 108.422 375.269 108.511C375.663 108.734 375.794 109.27 375.576 109.672C375.357 110.074 374.832 110.208 374.438 109.984C374.395 109.984 372.121 108.645 370.546 109.806C369.016 110.967 369.672 112.798 369.715 112.798C369.89 113.244 369.672 113.735 369.234 113.869C369.147 113.914 369.016 113.914 368.928 113.914Z" fill="#24174C"/>
<path d="M379.992 106.412C379.643 106.412 379.336 106.189 379.205 105.876C378.855 104.939 378.68 102.84 380.474 101.5C382.616 99.8925 385.372 101.5 385.459 101.589C385.853 101.813 385.984 102.349 385.765 102.75C385.546 103.152 385.022 103.286 384.628 103.063C384.584 103.063 382.748 101.947 381.479 102.884C380.299 103.777 380.736 105.117 380.78 105.296C380.955 105.742 380.736 106.233 380.299 106.367C380.211 106.367 380.08 106.412 379.992 106.412Z" fill="#24174C"/>
<path d="M382.398 121.595C381.96 121.595 381.523 121.55 381.042 121.461C380.605 121.371 380.299 120.925 380.386 120.478C380.474 120.032 380.911 119.719 381.348 119.809C384.453 120.478 387.208 117.799 387.252 117.799C387.602 117.486 388.127 117.486 388.433 117.844C388.739 118.201 388.739 118.737 388.389 119.049C388.345 119.094 385.721 121.595 382.398 121.595Z" fill="#24174C"/>
<path d="M384.584 114.584C384.453 114.584 384.366 114.539 384.278 114.45L380.648 110.476C380.473 110.297 380.473 110.029 380.648 109.851C380.823 109.672 381.086 109.672 381.261 109.851L384.89 113.825C385.065 114.003 385.065 114.271 384.89 114.45C384.803 114.539 384.672 114.584 384.584 114.584Z" fill="#24174C"/>
<path d="M368.928 113.512C368.753 113.512 368.578 113.423 368.534 113.244C368.185 112.307 367.966 110.118 369.803 108.734C372.077 107.037 374.963 108.779 375.094 108.823C375.313 108.957 375.357 109.225 375.226 109.449C375.094 109.672 374.832 109.717 374.613 109.583C374.57 109.583 372.077 108.064 370.284 109.404C368.534 110.744 369.278 112.842 369.278 112.842C369.365 113.066 369.234 113.334 369.016 113.423C369.059 113.512 368.972 113.512 368.928 113.512Z" fill="#24174C"/>
<path d="M379.992 106.01C379.817 106.01 379.642 105.921 379.599 105.742C379.293 104.894 379.118 103.018 380.692 101.857C382.66 100.384 385.153 101.902 385.24 101.947C385.459 102.081 385.503 102.349 385.371 102.572C385.24 102.795 384.978 102.84 384.759 102.75C384.759 102.75 382.66 101.5 381.173 102.616C379.73 103.688 380.342 105.385 380.342 105.474C380.43 105.698 380.298 105.966 380.08 106.055C380.123 106.01 380.036 106.01 379.992 106.01Z" fill="#24174C"/>
<path d="M382.398 121.193C382.004 121.193 381.567 121.148 381.13 121.059C380.911 121.014 380.736 120.791 380.78 120.523C380.823 120.3 381.042 120.121 381.305 120.166C384.584 120.88 387.515 118.067 387.558 118.022C387.733 117.844 387.996 117.844 388.17 118.022C388.345 118.201 388.345 118.469 388.17 118.648C388.083 118.826 385.59 121.193 382.398 121.193Z" fill="#24174C"/>
<path d="M399.147 226.801L417.122 298.115L324.846 293.828L334.248 239.662L304.379 236.089L321.566 183.709C323.578 177.458 328.257 172.501 334.292 170.224L360.969 160.042L377.15 183.04L388.214 162.632L414.891 169.554C421.276 171.206 426.524 175.805 429.104 181.968L447.997 226.667L399.147 226.801Z" fill="#7956D8"/>
<path d="M395.343 164.419C395.168 164.91 394.993 165.356 394.774 165.803C392.588 170.179 388.214 171.697 388.214 171.697C388.214 171.697 389.22 171.697 388.214 176.475C387.602 179.378 383.579 181.209 380.561 182.146C378.637 182.772 377.106 183.04 377.106 183.04L377.369 182.414L383.885 167.5L385.241 164.419L388.214 157.631C388.214 157.586 397.223 158.971 395.343 164.419Z" fill="white"/>
<path d="M377.15 182.995C375.007 183.397 372.121 183.575 369.803 182.236C368.097 181.253 366.698 179.512 366.042 176.475C365.036 171.697 360.925 171.697 360.925 171.697C360.925 171.697 355.677 169.911 353.797 164.463C353.753 164.374 353.709 164.24 353.709 164.151C353.578 163.659 353.534 163.213 353.534 162.811C353.753 158.837 360.444 157.676 360.881 157.631L362.631 160.355L367.179 167.5L376.712 182.459L377.15 182.995Z" fill="white"/>
<path d="M349.817 238.367L343.17 252.478C343.17 252.478 343.126 252.433 343.082 252.388L342.164 255.514C342.164 255.514 334.467 267.035 321.872 261.766C309.277 256.541 311.945 236.893 311.945 236.893L334.248 239.572L333.855 245.02L345.007 240.108C344.963 239.572 345.094 238.947 345.444 238.322C346.406 236.67 349.817 238.367 349.817 238.367Z" fill="#FFE3E0"/>
<path d="M329.744 294.006C329.744 294.006 326.245 313.744 325.065 339.911C323.84 366.079 336.479 472 336.479 472H363.156L373.127 336.339L378.025 295.882L329.744 294.006Z" fill="#CFC2F5"/>
<path d="M329.744 312.895C329.656 312.895 329.525 312.806 329.525 312.717C329.481 312.583 329.569 312.449 329.7 312.404C329.787 312.404 338.184 310.082 341.814 296.864C341.858 296.73 341.989 296.641 342.12 296.686C342.251 296.73 342.339 296.864 342.295 296.998C340.371 304.054 337.091 307.983 334.685 310.037C332.062 312.27 329.919 312.851 329.831 312.851C329.787 312.895 329.744 312.895 329.744 312.895Z" fill="#24174C"/>
<path d="M348.549 199.696L372.995 196.525L373.345 200.366L348.549 203.447V199.696Z" fill="white"/>
<path d="M333.942 240.51C333.942 240.51 321.653 239.037 311.77 239.037L311.944 236.982L334.248 239.662L333.942 240.51Z" fill="#24174C"/>
<path d="M548.45 260.337C549.587 260.739 550.462 261.587 550.943 262.614C551.424 263.641 551.512 264.892 551.118 266.053L549.412 270.92L541.147 267.928L542.853 263.061C543.64 260.694 546.176 259.488 548.45 260.337Z" fill="#E086A6"/>
<path d="M541.147 267.928L549.456 270.92L547.751 275.787C546.92 278.109 544.427 279.36 542.153 278.511C541.016 278.109 540.141 277.261 539.66 276.234C539.179 275.207 539.092 273.956 539.485 272.795L541.147 267.928Z" fill="#FFC0B8"/>
<path d="M462.428 11.5656L456.524 22.7739C453.157 23.0865 450.664 22.4613 450.096 20.8984C449.265 18.4424 453.551 14.6468 459.717 12.414C460.635 12.0568 461.554 11.7889 462.428 11.5656Z" fill="#F7EFFF"/>
<path d="M472.443 12.7713C473.274 15.2273 468.988 19.0229 462.822 21.2556C461.291 21.7915 459.761 22.238 458.361 22.4613L464.222 11.119C468.464 10.4046 471.831 10.9404 472.443 12.7713Z" fill="#F7EFFF"/>
<path d="M473.012 13.709L474.324 17.5493C475.198 20.05 470.781 23.9349 464.484 26.2123C458.186 28.4897 452.37 28.3111 451.495 25.8104C451.452 25.7211 451.452 25.5871 451.408 25.4978L450.14 21.9701C450.358 22.6399 450.971 23.1758 451.845 23.4884C452.938 23.8903 454.425 24.0242 456.131 23.9349C458.186 23.801 460.592 23.2651 463.084 22.372C467.327 20.8537 470.694 18.5764 472.181 16.5222C472.312 16.3436 472.4 16.165 472.487 16.031C473.099 15.1379 473.274 14.3788 473.012 13.709Z" fill="#F7EFFF"/>
<path d="M468.044 82.833L457.716 72.2869L447.387 82.833L457.716 93.3792L468.044 82.833Z" fill="#E086A6"/>
<path d="M567.168 136.043L551.768 120.318L536.368 136.043L551.768 151.767L567.168 136.043Z" fill="#F7EFFF"/>
<path d="M123.195 95.8736C124.769 95.8736 126.168 96.4988 127.174 97.5705C128.18 98.5976 128.836 100.071 128.836 101.634V108.243H117.597V101.634C117.553 98.4636 120.09 95.8736 123.195 95.8736Z" fill="#735CD1"/>
<path d="M117.553 108.243H128.792V114.852C128.792 118.022 126.256 120.612 123.151 120.612C121.576 120.612 120.177 119.987 119.171 118.915C118.165 117.888 117.509 116.459 117.509 114.852L117.553 108.243Z" fill="#CFC2F5"/>
<path d="M497.415 450.968L495.534 472.045H453.42L430.722 408.01L420.664 472.045H374.701C374.701 472.045 372.077 438.33 369.322 414.574C367.135 395.596 367.485 380.279 369.453 370.098C393.462 373.67 450.402 380.77 480.184 372.554L496.278 434.535C497.677 439.849 498.071 445.43 497.415 450.968Z" fill="#24174C"/>
<path d="M496.977 297.936C490.767 303.071 485.388 308.162 480.097 312.806L493.697 366.079C468.07 387.781 358.345 368.312 358.345 368.312L368.535 323.612L345.663 306.152C334.161 297.356 330.138 281.592 336.041 268.241C342.645 253.326 351.042 234.928 356.552 225.06L358.782 221.13C363.418 212.869 371.64 207.421 380.911 206.483L398.142 204.697L399.322 204.563C399.585 204.563 399.803 204.518 400.022 204.518C400.241 204.518 400.459 204.474 400.678 204.474L436.801 231.892L444.761 208.046C456.175 209.832 475.942 215.95 488.537 237.652L511.059 286.281C507.91 289.586 500.563 294.989 496.977 297.936Z" fill="#EA81B1"/>
<path d="M457.924 151.737V167.232C457.924 179.824 449.178 190.363 437.588 192.819V207.108C437.588 207.108 439.906 207.198 443.536 207.778C443.973 207.868 444.411 207.912 444.848 208.002L436.889 231.847L400.853 204.518C401.028 204.518 401.159 204.474 401.29 204.474C401.378 204.474 401.509 204.474 401.597 204.429C401.684 204.429 401.815 204.429 401.903 204.384C405.532 204.072 413.667 203.983 416.028 204.384H416.159C416.159 204.384 423.681 201.08 421.626 191.569C420.883 188.175 418.827 185.853 416.597 184.379C416.641 184.156 416.597 184.379 416.772 183.754C417.559 180.762 418.171 174.064 409.6 170.134C409.425 170.134 409.293 170.134 409.119 170.134C404.483 170.134 400.766 166.294 400.766 161.605C400.766 157.72 403.258 154.461 406.713 153.433C406.713 152.406 406.67 151.737 406.67 151.737C406.67 137.313 418.127 125.614 432.253 125.614C439.338 125.614 445.723 128.561 450.358 133.25C455.082 137.983 457.924 144.503 457.924 151.737Z" fill="#FFE3E0"/>
<path d="M457.924 151.692C457.924 151.692 449.659 149.191 444.411 136.867C444.411 136.867 438.288 154.907 415.897 154.193H413.317C412.092 153.478 410.649 153.076 409.162 153.076C408.331 153.076 407.501 153.21 406.713 153.433V151.692C406.713 137.269 418.171 125.569 432.297 125.569C439.382 125.569 445.767 128.516 450.402 133.205C455.082 137.894 457.924 144.458 457.924 151.692Z" fill="#24174C"/>
<path d="M443.23 170.045C442.88 170.045 442.574 169.732 442.574 169.375V163.079C442.574 162.722 442.88 162.409 443.23 162.409C443.58 162.409 443.886 162.722 443.886 163.079V169.375C443.886 169.732 443.58 170.045 443.23 170.045Z" fill="#24174C"/>
<path d="M438.026 162.23C437.807 162.23 437.632 162.141 437.501 161.918C437.457 161.829 436.408 160.31 434.527 160.31C432.603 160.31 431.466 161.561 431.422 161.605C431.203 161.873 430.766 161.918 430.504 161.65C430.241 161.427 430.198 160.98 430.46 160.712C430.547 160.623 431.991 159.015 434.527 159.015C437.107 159.015 438.507 161.069 438.551 161.203C438.769 161.516 438.682 161.918 438.376 162.096C438.244 162.186 438.157 162.23 438.026 162.23Z" fill="#24174C"/>
<path d="M453.901 162.23C453.682 162.23 453.507 162.141 453.376 161.918C453.332 161.829 452.283 160.31 450.402 160.31C448.434 160.31 447.297 161.561 447.297 161.605C447.078 161.873 446.641 161.918 446.379 161.65C446.116 161.427 446.073 160.98 446.335 160.712C446.422 160.623 447.866 159.015 450.402 159.015C452.982 159.015 454.382 161.069 454.426 161.203C454.644 161.516 454.557 161.918 454.251 162.096C454.119 162.186 454.032 162.23 453.901 162.23Z" fill="#24174C"/>
<path d="M441.131 176.699H438.682C435.533 176.386 434.396 173.126 434.352 172.948C434.221 172.59 434.396 172.233 434.746 172.099C435.096 171.965 435.445 172.144 435.577 172.501C435.577 172.546 436.539 175.136 438.813 175.359H441.131C441.481 175.359 441.787 175.672 441.787 176.029C441.787 176.386 441.481 176.699 441.131 176.699Z" fill="#24174C"/>
<path d="M487.05 208.18C487.05 215.191 484.601 221.577 480.534 226.533C469.557 214.655 456.35 210.145 447.166 208.359H447.122C445.767 208.091 444.542 207.868 443.405 207.689C439.775 207.108 437.458 207.019 437.458 207.019V192.73C437.939 192.64 438.463 192.506 438.944 192.372C445.679 190.497 451.321 185.897 454.601 179.78C456.612 176.029 457.793 171.697 457.793 167.142V151.29C466.408 154.461 472.531 162.856 472.531 172.724C472.531 176.029 471.831 179.155 470.607 182.012C480.272 186.567 487.05 196.57 487.05 208.18Z" fill="#24174C"/>
<path d="M416.16 204.34C416.16 204.34 408.288 203.893 401.903 204.34C401.815 204.34 401.684 204.34 401.597 204.384C401.334 204.429 401.028 204.429 400.766 204.474L400.722 204.429C400.503 204.474 400.285 204.474 400.066 204.518C399.847 204.518 399.585 204.563 399.366 204.608L398.186 204.742L380.955 206.528C378.2 206.796 375.576 207.466 373.083 208.493C375.095 204.608 375.488 198.937 378.112 193.131C382.835 182.548 387.296 183.441 395.168 179.333C402.865 175.314 401.684 165.624 401.553 165.222C402.865 168.17 405.795 170.224 409.162 170.224C409.381 170.224 409.556 170.224 409.731 170.224C418.215 174.153 417.603 180.807 416.816 183.799C416.728 184.022 416.684 184.245 416.641 184.424C418.915 185.942 420.926 188.219 421.67 191.613C423.725 201.035 416.16 204.34 416.16 204.34Z" fill="#24174C"/>
<path d="M425.562 223.452L439.994 222.827L436.889 232.026L425.562 223.452Z" fill="white"/>
<path d="M414.279 200.5V201.75C414.192 201.75 407.719 202.107 406.844 217.736C406.101 231.401 405.051 242.475 404.395 248.816C406.713 249.62 408.375 251.852 408.375 254.487C408.375 257.792 405.751 260.471 402.515 260.471C399.279 260.471 396.655 257.792 396.655 254.487C396.655 251.406 398.973 248.816 401.903 248.548C402.559 242.252 403.565 231.222 404.308 217.647C405.314 199.383 413.842 199.249 414.235 199.249L414.279 200.5Z" fill="#24174C"/>
<path d="M474.848 268.375C474.061 268.777 473.536 269.536 473.405 270.473C471.568 269.044 470.125 267.169 469.163 265.026L459.848 244.574L462.122 243.502L471.437 263.954C472.181 265.651 473.362 267.169 474.848 268.375Z" fill="#F3E9E7"/>
<path d="M483.595 268.643C483.114 268.241 482.502 267.973 481.846 267.973C481.583 267.973 481.365 268.017 481.146 268.062C481.321 266.544 481.233 265.026 480.884 263.552L474.805 238.992L477.21 238.367L483.289 262.927C483.77 264.802 483.857 266.722 483.595 268.643Z" fill="#F3E9E7"/>
<path d="M477.254 238.277L476.029 238.679L474.892 239.081C474.761 238.724 472.006 230.418 465.84 231.579C464.615 231.802 463.697 232.428 463.041 233.455C461.16 236.357 461.904 241.85 462.341 243.725L459.892 244.306C459.805 243.993 458.143 236.447 460.985 232.07C461.729 230.909 462.691 230.061 463.916 229.57C460.461 222.068 454.907 212.914 447.21 208.448C442.312 205.59 438.769 205.947 438.726 205.947L438.419 203.447C439.075 203.357 453.988 201.661 466.408 228.989C472.443 228.453 476.117 234.705 477.254 238.277Z" fill="#24174C"/>
<path d="M455.256 317.629L419.395 318.209C417.515 318.254 415.984 316.691 415.984 314.771L415.678 250.825C415.678 248.905 417.165 247.387 419.046 247.387H455.344C457.224 247.387 458.711 248.905 458.711 250.825L458.58 314.19C458.536 316.066 457.093 317.584 455.256 317.629Z" fill="#24174C"/>
<path d="M448.74 260.649H426.131C426.043 260.649 425.956 260.56 425.956 260.471C425.956 260.381 426.043 260.292 426.131 260.292H448.74C448.828 260.292 448.915 260.381 448.915 260.471C448.915 260.605 448.871 260.649 448.74 260.649Z" fill="#7956D8"/>
<path d="M448.74 263.82H426.131C426.043 263.82 425.956 263.731 425.956 263.641C425.956 263.552 426.043 263.463 426.131 263.463H448.74C448.828 263.463 448.915 263.552 448.915 263.641C448.915 263.731 448.871 263.82 448.74 263.82Z" fill="#7956D8"/>
<path d="M448.74 266.946H426.131C426.043 266.946 425.956 266.856 425.956 266.767C425.956 266.678 426.043 266.588 426.131 266.588H448.74C448.828 266.588 448.915 266.678 448.915 266.767C448.915 266.901 448.871 266.946 448.74 266.946Z" fill="#7956D8"/>
<path d="M476.029 273.51C477.503 273.51 478.697 272.29 478.697 270.786C478.697 269.282 477.503 268.062 476.029 268.062C474.556 268.062 473.362 269.282 473.362 270.786C473.362 272.29 474.556 273.51 476.029 273.51Z" fill="#24174C"/>
<path d="M481.846 273.376C483.319 273.376 484.514 272.156 484.514 270.652C484.514 269.148 483.319 267.928 481.846 267.928C480.373 267.928 479.178 269.148 479.178 270.652C479.178 272.156 480.373 273.376 481.846 273.376Z" fill="#24174C"/>
<path d="M415.022 295.525L414.979 295.614L405.926 314.458L393.2 342.412L400.94 314.86L406.888 295.48L407.457 293.56C408.375 290.523 412.53 290.211 413.842 293.113L414.672 294.9L415.022 295.525Z" fill="#24174C"/>
<path d="M465.752 290.613C465.752 290.613 466.146 293.292 462.035 295.569C462.035 295.569 462.035 298.517 456.437 300.169C450.839 301.821 450.664 301.553 450.664 301.553L410.168 312.136L405.139 313.476L408.812 297.891C409.337 295.703 411.086 294.096 413.273 293.783L417.209 293.247L442.967 289.586C442.967 289.586 444.848 286.504 448.828 285.12C448.828 285.12 451.889 282.486 453.463 279.628C453.463 279.628 454.513 278.154 455.606 278.511C456.699 278.824 459.717 281.325 453.682 286.237C453.944 286.192 457.968 285.209 461.029 283.468C464.221 281.726 465.49 282.352 465.927 283.468C466.364 284.584 464.877 285.969 458.274 289.407C458.274 289.407 461.597 289.407 464.79 288.023C464.79 288.023 466.321 287.487 466.714 288.335C466.933 288.693 466.758 289.541 465.752 290.613Z" fill="#FFE3E0"/>
<path d="M492.079 310.127C489.98 311.556 487.006 312.047 484.164 312.136C479.921 312.226 475.723 311.377 471.875 309.77L420.489 288.603C420.489 288.603 420.27 288.826 414.76 286.236C414.76 286.236 412.486 284.45 411.786 283.289C411.086 282.128 412.223 281.458 412.223 281.458C410.955 279.628 412.267 278.333 412.267 278.333C412.267 278.333 411.174 277.484 411.261 276.323C411.261 276.011 411.393 275.787 411.524 275.564C411.917 274.984 412.705 274.805 413.404 274.984C414.104 275.162 414.541 275.251 414.541 275.251C413.973 274.85 413.448 274.448 412.967 274.09C412.923 274.001 412.18 272.974 412.967 271.768C413.011 271.679 413.054 271.634 413.142 271.545C413.842 270.697 415.197 270.518 416.203 271.099C418.171 272.17 419.877 272.885 420.008 272.929C414.454 266.946 418.127 265.07 419.352 264.981C420.576 264.847 421.407 266.499 421.407 266.499C422.588 269.625 425.387 272.751 425.387 272.751C429.41 274.85 430.853 278.243 430.853 278.243L457.574 286.594L492.998 296.864C493.041 296.864 493.041 296.864 493.085 296.909C499.339 298.784 497.327 306.51 492.079 310.127Z" fill="#FFE3E0"/>
<path d="M368.579 323.612L393.2 342.367L362.762 349.066L368.579 323.612Z" fill="#24174C"/>
<path d="M349.773 238.322C349.773 238.322 352.222 239.483 351.741 241.269C351.26 243.055 347.893 242.207 347.893 242.207C347.893 242.207 350.254 243.279 349.861 244.797C349.467 246.315 346.187 245.869 346.187 245.869C346.187 245.869 348.374 247.476 347.674 248.771C346.974 250.066 344.438 249.709 344.438 249.709L349.773 238.322Z" fill="#FFE3E0"/>
<path d="M351.829 234.392C351.829 234.392 349.817 233.544 349.074 235.152C348.33 236.714 349.948 238.054 349.948 238.054L351.829 234.392Z" fill="#FFE3E0"/>
</g>
<defs>
<clipPath id="clip0_1046_9624">
<rect width="628" height="472" fill="white"/>
</clipPath>
</defs>
</svg>
