<svg width="171" height="50" viewBox="0 0 171 50" fill="none" xmlns="http://www.w3.org/2000/svg">
<rect x="0.413208" width="170" height="50" rx="7" fill="black"/>
<path fill-rule="evenodd" clip-rule="evenodd" d="M6.7095 0H164.117C167.594 0 170.413 2.79822 170.413 6.25V43.75C170.413 47.2018 167.594 50 164.117 50H6.7095C3.23216 50 0.413208 47.2018 0.413208 43.75V6.25C0.413208 2.79822 3.23216 0 6.7095 0ZM169.406 6.25C169.406 3.35051 167.038 1 164.117 1H6.7095C3.78853 1 1.42062 3.35051 1.42062 6.25V43.75C1.42062 46.6495 3.78853 49 6.7095 49H164.117C167.038 49 169.406 46.6495 169.406 43.75V6.25Z" fill="#A6A6A6"/>
<path fill-rule="evenodd" clip-rule="evenodd" d="M60.5302 28.8249V31.0749H65.9702C65.8849 32.1347 65.4411 33.1347 64.7109 33.9124C63.6104 35.0252 62.0873 35.6245 60.5176 35.5624C57.1794 35.5624 54.4732 32.8761 54.4732 29.5624C54.4732 26.2487 57.1794 23.5624 60.5176 23.5624C62.0511 23.5376 63.532 24.1175 64.6354 25.1749L66.2347 23.5874C64.7297 22.0748 62.6719 21.2315 60.5302 21.2499C57.4815 21.1322 54.6122 22.6795 53.0525 25.2825C51.4929 27.8855 51.4929 31.1269 53.0525 33.7299C54.6122 36.3328 57.4815 37.8802 60.5302 37.7624C62.711 37.8602 64.8277 37.017 66.3354 35.4499C67.6547 34.0111 68.3591 32.1196 68.2998 30.1749C68.3039 29.7012 68.2617 29.2281 68.1739 28.7624L60.5302 28.8249ZM74.4954 27.1874C71.5413 27.1943 69.1515 29.5759 69.1561 32.5082C69.1608 35.4406 71.5581 37.8147 74.5122 37.8124C77.4663 37.8101 79.8598 35.4323 79.8598 32.4999C79.8806 31.0804 79.3199 29.7133 78.3062 28.7118C77.2926 27.7103 75.9127 27.1602 74.4828 27.1874H74.4954ZM80.8925 32.5165C80.8832 29.5858 83.2667 27.2012 86.2191 27.1874C87.649 27.1602 89.0289 27.7103 90.0425 28.7118C91.0562 29.7133 91.6169 31.0804 91.5961 32.4999C91.5961 35.4307 89.2051 37.8078 86.2526 37.8124C83.3002 37.8169 80.9017 35.4473 80.8925 32.5165ZM83.0609 33.898C83.6359 35.0928 84.8883 35.8173 86.2191 35.7249C87.0544 35.7057 87.8464 35.3524 88.4154 34.7451C88.9845 34.1379 89.2823 33.3283 89.2413 32.4999C89.2381 31.1757 88.4197 29.9881 87.1776 29.505C85.9356 29.022 84.5222 29.3417 83.6136 30.3112C82.7051 31.2808 82.4859 32.7031 83.0609 33.898ZM71.3288 33.9075C71.9079 35.1016 73.1639 35.8225 74.4954 35.7249H74.4828C75.3181 35.7057 76.1101 35.3524 76.6791 34.7451C77.2482 34.1379 77.546 33.3283 77.505 32.4999C77.5014 31.1747 76.6814 29.9865 75.4378 29.5045C74.1941 29.0225 72.78 29.3448 71.8728 30.317C70.9655 31.2893 70.7497 32.7135 71.3288 33.9075ZM113.004 27.1874C115.091 27.2637 116.915 28.6114 117.587 30.5749L117.852 31.1374L110.687 34.0749C111.136 35.0902 112.164 35.7297 113.281 35.6874C114.358 35.6901 115.358 35.1299 115.912 34.2124L117.738 35.4624C116.744 36.9392 115.07 37.822 113.281 37.8124C111.858 37.8331 110.489 37.2788 109.486 36.2769C108.484 35.275 107.936 33.9115 107.967 32.4999C107.879 31.1206 108.371 29.767 109.326 28.7606C110.28 27.7542 111.611 27.1847 113.004 27.1874ZM110.284 32.3499C110.232 31.5689 110.499 30.8001 111.025 30.2169C111.551 29.6337 112.291 29.2852 113.079 29.2499C113.909 29.1956 114.692 29.6383 115.069 30.3749L110.284 32.3499ZM106.821 37.4999H104.466V21.8749H106.821V37.4999ZM100.612 28.3749H100.524C99.8065 27.5783 98.7803 27.1235 97.7035 27.1249C94.8452 27.2625 92.5989 29.603 92.5989 32.4437C92.5989 35.2843 94.8452 37.6248 97.7035 37.7624C98.7838 37.7805 99.8166 37.3228 100.524 36.5124H100.6V37.2749C100.6 39.3124 99.5043 40.3999 97.7413 40.3999C96.5404 40.372 95.4756 39.6262 95.0465 38.5124L92.9939 39.3624C93.7843 41.2709 95.6626 42.5123 97.7413 42.4999C100.499 42.4999 102.778 40.8874 102.778 36.9624V27.4999H100.612V28.3749ZM97.9137 35.7246L97.9176 35.7249H97.905L97.9137 35.7246ZM100.036 34.7222C99.4952 35.3292 98.7289 35.6911 97.9137 35.7246C96.2318 35.5755 94.9425 34.1765 94.9425 32.4999C94.9425 30.8221 96.2338 29.4222 97.9176 29.2749C98.7313 29.3164 99.4936 29.6821 100.032 30.2893C100.57 30.8965 100.838 31.6936 100.776 32.4999C100.846 33.31 100.578 34.113 100.036 34.7222ZM128.618 21.8749H122.989V37.4999H125.344V31.5749H128.631C130.46 31.7054 132.21 30.8106 133.164 29.2561C134.119 27.7017 134.119 25.7481 133.164 24.1937C132.21 22.6393 130.46 21.7445 128.631 21.8749H128.618ZM125.332 29.3749H128.618L128.669 29.4124C130.161 29.4124 131.37 28.212 131.37 26.7312C131.37 25.2504 130.161 24.0499 128.669 24.0499H125.332V29.3749ZM143.138 27.1249C141.386 27.021 139.738 27.9588 138.944 29.5124L141.035 30.3749C141.456 29.6045 142.295 29.1535 143.175 29.2249C143.779 29.1549 144.386 29.3286 144.86 29.7071C145.333 30.0855 145.634 30.6369 145.694 31.2374V31.3999C144.938 31.0024 144.094 30.7963 143.238 30.7999C140.984 30.7999 138.705 32.0499 138.705 34.3124C138.75 35.2871 139.19 36.2022 139.925 36.8497C140.661 37.4971 141.629 37.8218 142.609 37.7499C143.817 37.836 144.976 37.2608 145.631 36.2499H145.707V37.4999H147.973V31.4874C147.973 28.7499 145.883 27.1624 143.201 27.1624L143.138 27.1249ZM141.009 34.3624C141.009 35.2999 142.08 35.6874 142.848 35.6874L142.911 35.7249C144.33 35.6906 145.506 34.6242 145.669 33.2249C145.015 32.8629 144.276 32.6816 143.528 32.6999C142.344 32.6999 141.009 33.1124 141.009 34.3624ZM156.234 27.4999L153.539 34.2749H153.464L150.668 27.4999H148.149L152.343 36.9749L149.95 42.2374H152.406L158.853 27.4999H156.234ZM137.421 37.4999H135.066V21.8749H137.421V37.4999Z" fill="white"/>
<path fill-rule="evenodd" clip-rule="evenodd" d="M87.5665 9.71234C86.0809 11.2733 86.0809 13.7139 87.5665 15.2748C89.099 16.7876 91.5747 16.7876 93.1072 15.2748C94.5992 13.7164 94.5992 11.2708 93.1072 9.71234C92.3743 8.97952 91.3771 8.56738 90.3369 8.56738C89.2966 8.56738 88.2994 8.97952 87.5665 9.71234ZM59.1828 15.2998C59.8291 14.63 60.1705 13.7264 60.1272 12.7998C60.1273 12.6112 60.1105 12.423 60.0769 12.2373H56.4124V13.1373H59.145C59.1264 13.7042 58.9029 14.2455 58.5154 14.6623C57.6523 15.4905 56.372 15.7219 55.2702 15.2489C54.1684 14.7759 53.4615 13.6913 53.4783 12.4998C53.4509 11.7114 53.7483 10.9458 54.3019 10.3798C54.8556 9.8137 55.6176 9.49597 56.4124 9.49984C57.2031 9.45695 57.968 9.78569 58.4776 10.3873L59.145 9.72484C58.8226 9.35679 58.417 9.06978 57.9613 8.88734C57.4719 8.67943 56.9448 8.57308 56.4124 8.57484C55.368 8.55174 54.3605 8.959 53.6295 9.69984C52.5044 10.824 52.1678 12.5081 52.7753 13.9735C53.3828 15.4389 54.8161 16.3999 56.4124 16.4123C57.4532 16.4491 58.4605 16.0446 59.1828 15.2998ZM62.4946 9.67484H65.8946V8.74984H61.4872V16.2498H65.8946V15.3248H62.4946V12.9498H65.5924V12.0498H62.4946V9.67484ZM70.025 16.2498H69.0554V9.67484H66.9398V8.74984H72.1909V9.67484H70.025V16.2498ZM76.8628 8.74984H75.8932V16.2498H76.8628V8.74984ZM81.1695 16.2498H80.1998V9.67484H78.0843V8.74984H83.2724V9.67484H81.1695V16.2498ZM96.7717 8.74984H95.588V16.2498H96.5702V10.1373L100.411 16.2498H101.418V8.74984H100.449V14.5873L96.7717 8.74984ZM88.2843 14.6498C89.4193 15.7718 91.2545 15.7718 92.3895 14.6498C93.5042 13.4301 93.5042 11.5696 92.3895 10.3498C91.2545 9.22789 89.4193 9.22789 88.2843 10.3498C87.1696 11.5696 87.1696 13.4301 88.2843 14.6498Z" fill="white"/>
<path d="M87.5665 15.2748L87.494 15.3438L87.4962 15.346L87.5665 15.2748ZM87.5665 9.71234L87.4958 9.64161L87.4941 9.6434L87.5665 9.71234ZM93.1072 15.2748L93.1775 15.346L93.1795 15.344L93.1072 15.2748ZM93.1072 9.71234L93.1795 9.64317L93.1779 9.64163L93.1072 9.71234ZM60.1272 12.7998L60.0271 12.7998L60.0273 12.8045L60.1272 12.7998ZM59.1828 15.2998L59.2546 15.3695L59.2548 15.3693L59.1828 15.2998ZM60.0769 12.2373L60.1753 12.2195L60.1604 12.1373H60.0769V12.2373ZM56.4124 12.2373V12.1373H56.3124V12.2373H56.4124ZM56.4124 13.1373H56.3124V13.2373H56.4124V13.1373ZM59.145 13.1373L59.245 13.1406L59.2484 13.0373H59.145V13.1373ZM58.5154 14.6623L58.5847 14.7346L58.5886 14.7304L58.5154 14.6623ZM53.4783 12.4998L53.5785 12.5013L53.5783 12.4964L53.4783 12.4998ZM54.3019 10.3798L54.2305 10.3098L54.3019 10.3798ZM56.4124 9.49984L56.4119 9.60002L56.4178 9.59969L56.4124 9.49984ZM58.4776 10.3873L58.4013 10.452L58.4712 10.5346L58.5481 10.4583L58.4776 10.3873ZM59.145 9.72484L59.2155 9.79581L59.2821 9.72962L59.2202 9.65895L59.145 9.72484ZM57.9613 8.88734L57.9222 8.9794L57.9241 8.98018L57.9613 8.88734ZM56.4124 8.57484L56.4102 8.67485L56.4128 8.67484L56.4124 8.57484ZM53.6295 9.69984L53.7001 9.77058L53.7006 9.77008L53.6295 9.69984ZM56.4124 16.4123L56.416 16.3124L56.4132 16.3123L56.4124 16.4123ZM65.8946 9.67484V9.77484H65.9946V9.67484H65.8946ZM62.4946 9.67484V9.57484H62.3946V9.67484H62.4946ZM65.8946 8.74984H65.9946V8.64984H65.8946V8.74984ZM61.4872 8.74984V8.64984H61.3872V8.74984H61.4872ZM61.4872 16.2498H61.3872V16.3498H61.4872V16.2498ZM65.8946 16.2498V16.3498H65.9946V16.2498H65.8946ZM65.8946 15.3248H65.9946V15.2248H65.8946V15.3248ZM62.4946 15.3248H62.3946V15.4248H62.4946V15.3248ZM62.4946 12.9498V12.8498H62.3946V12.9498H62.4946ZM65.5924 12.9498V13.0498H65.6924V12.9498H65.5924ZM65.5924 12.0498H65.6924V11.9498H65.5924V12.0498ZM62.4946 12.0498H62.3946V12.1498H62.4946V12.0498ZM69.0554 16.2498H68.9554V16.3498H69.0554V16.2498ZM70.025 16.2498V16.3498H70.125V16.2498H70.025ZM69.0554 9.67484H69.1554V9.57484H69.0554V9.67484ZM66.9398 9.67484H66.8398V9.77484H66.9398V9.67484ZM66.9398 8.74984V8.64984H66.8398V8.74984H66.9398ZM72.1909 8.74984H72.2909V8.64984H72.1909V8.74984ZM72.1909 9.67484V9.77484H72.2909V9.67484H72.1909ZM70.025 9.67484V9.57484H69.925V9.67484H70.025ZM75.8932 8.74984V8.64984H75.7932V8.74984H75.8932ZM76.8628 8.74984H76.9628V8.64984H76.8628V8.74984ZM75.8932 16.2498H75.7932V16.3498H75.8932V16.2498ZM76.8628 16.2498V16.3498H76.9628V16.2498H76.8628ZM80.1998 16.2498H80.0998V16.3498H80.1998V16.2498ZM81.1695 16.2498V16.3498H81.2695V16.2498H81.1695ZM80.1998 9.67484H80.2998V9.57484H80.1998V9.67484ZM78.0843 9.67484H77.9843V9.77484H78.0843V9.67484ZM78.0843 8.74984V8.64984H77.9843V8.74984H78.0843ZM83.2724 8.74984H83.3724V8.64984H83.2724V8.74984ZM83.2724 9.67484V9.77484H83.3724V9.67484H83.2724ZM81.1695 9.67484V9.57484H81.0695V9.67484H81.1695ZM95.588 8.74984V8.64984H95.488V8.74984H95.588ZM96.7717 8.74984L96.8563 8.69654L96.8269 8.64984H96.7717V8.74984ZM95.588 16.2498H95.488V16.3498H95.588V16.2498ZM96.5702 16.2498V16.3498H96.6702V16.2498H96.5702ZM96.5702 10.1373L96.6549 10.0841L96.4702 9.79023V10.1373H96.5702ZM100.411 16.2498L100.326 16.303L100.356 16.3498H100.411V16.2498ZM101.418 16.2498V16.3498H101.518V16.2498H101.418ZM101.418 8.74984H101.518V8.64984H101.418V8.74984ZM100.449 8.74984V8.64984H100.349V8.74984H100.449ZM100.449 14.5873L100.364 14.6406L100.549 14.9337V14.5873H100.449ZM92.3895 14.6498L92.4599 14.7211L92.4633 14.7173L92.3895 14.6498ZM88.2843 14.6498L88.2104 14.7174L88.214 14.721L88.2843 14.6498ZM92.3895 10.3498L92.4634 10.2823L92.4598 10.2787L92.3895 10.3498ZM88.2843 10.3498L88.2139 10.2786L88.2105 10.2824L88.2843 10.3498ZM87.6389 15.2059C86.1901 13.6836 86.1901 11.3036 87.6389 9.78128L87.4941 9.6434C85.9717 11.243 85.9717 13.7442 87.4941 15.3438L87.6389 15.2059ZM93.037 15.2037C91.5434 16.678 89.1303 16.678 87.6367 15.2037L87.4962 15.346C89.0677 16.8972 91.606 16.8972 93.1775 15.346L93.037 15.2037ZM93.035 9.78149C94.4899 11.3013 94.4899 13.6859 93.035 15.2057L93.1795 15.344C94.7084 13.7469 94.7084 11.2403 93.1795 9.64319L93.035 9.78149ZM90.3369 8.66738C91.3507 8.66738 92.3225 9.06907 93.0365 9.78306L93.1779 9.64163C92.4262 8.88998 91.4035 8.46738 90.3369 8.46738V8.66738ZM87.6372 9.78306C88.3513 9.06907 89.323 8.66738 90.3369 8.66738V8.46738C89.2702 8.46738 88.2475 8.88998 87.4958 9.64163L87.6372 9.78306ZM60.0273 12.8045C60.0693 13.7034 59.7381 14.5803 59.1108 15.2304L59.2548 15.3693C59.9201 14.6797 60.2717 13.7493 60.2271 12.7952L60.0273 12.8045ZM59.9785 12.2551C60.011 12.4349 60.0273 12.6172 60.0272 12.7998L60.2272 12.7999C60.2273 12.6053 60.2099 12.4111 60.1753 12.2195L59.9785 12.2551ZM56.4124 12.3373H60.0769V12.1373H56.4124V12.3373ZM56.5124 13.1373V12.2373H56.3124V13.1373H56.5124ZM59.145 13.0373H56.4124V13.2373H59.145V13.0373ZM58.5886 14.7304C58.9925 14.296 59.2255 13.7317 59.245 13.1406L59.0451 13.1341C59.0272 13.6767 58.8133 14.195 58.4421 14.5943L58.5886 14.7304ZM55.2307 15.3408C56.3693 15.8296 57.6924 15.5906 58.5846 14.7345L58.4461 14.5902C57.6121 15.3905 56.3746 15.6143 55.3096 15.157L55.2307 15.3408ZM53.3784 12.4984C53.3609 13.7307 54.092 14.8519 55.2307 15.3408L55.3096 15.157C54.2447 14.6998 53.562 13.6519 53.5783 12.5013L53.3784 12.4984ZM54.2305 10.3098C53.6578 10.8954 53.35 11.6874 53.3784 12.5033L53.5783 12.4964C53.5518 11.7353 53.8389 10.9963 54.3734 10.4497L54.2305 10.3098ZM56.4129 9.39984C55.5912 9.39584 54.8031 9.72434 54.2305 10.3098L54.3734 10.4497C54.9081 9.90306 55.6441 9.5961 56.4119 9.59984L56.4129 9.39984ZM58.5539 10.3227C58.024 9.69705 57.2288 9.35541 56.407 9.39999L56.4178 9.59969C57.1774 9.55849 57.9121 9.87432 58.4013 10.452L58.5539 10.3227ZM59.0746 9.65387L58.4072 10.3164L58.5481 10.4583L59.2155 9.79581L59.0746 9.65387ZM57.9241 8.98018C58.3652 9.15678 58.7578 9.43457 59.0698 9.79073L59.2202 9.65895C58.8874 9.279 58.4687 8.98279 57.9985 8.79451L57.9241 8.98018ZM56.4128 8.67484C56.9316 8.67313 57.4453 8.77677 57.9222 8.97938L58.0004 8.7953C57.4985 8.58208 56.958 8.47304 56.4121 8.47484L56.4128 8.67484ZM53.7006 9.77008C54.4123 9.04891 55.3931 8.65232 56.4102 8.67482L56.4146 8.47487C55.3428 8.45115 54.3087 8.86909 53.5583 9.6296L53.7006 9.77008ZM52.8677 13.9352C52.2757 12.5073 52.6036 10.8662 53.7001 9.77058L53.5588 9.6291C52.4051 10.7818 52.0598 12.5089 52.6829 14.0118L52.8677 13.9352ZM56.4132 16.3123C54.8567 16.3003 53.4597 15.3632 52.8677 13.9352L52.6829 14.0118C53.306 15.5146 54.7755 16.4996 56.4116 16.5123L56.4132 16.3123ZM59.111 15.2302C58.4085 15.9546 57.4286 16.3482 56.416 16.3124L56.4089 16.5123C57.4778 16.5501 58.5126 16.1346 59.2546 15.3695L59.111 15.2302ZM65.8946 9.57484H62.4946V9.77484H65.8946V9.57484ZM65.7946 8.74984V9.67484H65.9946V8.74984H65.7946ZM61.4872 8.84984H65.8946V8.64984H61.4872V8.84984ZM61.5872 16.2498V8.74984H61.3872V16.2498H61.5872ZM65.8946 16.1498H61.4872V16.3498H65.8946V16.1498ZM65.7946 15.3248V16.2498H65.9946V15.3248H65.7946ZM62.4946 15.4248H65.8946V15.2248H62.4946V15.4248ZM62.3946 12.9498V15.3248H62.5946V12.9498H62.3946ZM65.5924 12.8498H62.4946V13.0498H65.5924V12.8498ZM65.4924 12.0498V12.9498H65.6924V12.0498H65.4924ZM62.4946 12.1498H65.5924V11.9498H62.4946V12.1498ZM62.3946 9.67484V12.0498H62.5946V9.67484H62.3946ZM69.0554 16.3498H70.025V16.1498H69.0554V16.3498ZM68.9554 9.67484V16.2498H69.1554V9.67484H68.9554ZM66.9398 9.77484H69.0554V9.57484H66.9398V9.77484ZM66.8398 8.74984V9.67484H67.0398V8.74984H66.8398ZM72.1909 8.64984H66.9398V8.84984H72.1909V8.64984ZM72.2909 9.67484V8.74984H72.0909V9.67484H72.2909ZM70.025 9.77484H72.1909V9.57484H70.025V9.77484ZM70.125 16.2498V9.67484H69.925V16.2498H70.125ZM75.8932 8.84984H76.8628V8.64984H75.8932V8.84984ZM75.9932 16.2498V8.74984H75.7932V16.2498H75.9932ZM76.8628 16.1498H75.8932V16.3498H76.8628V16.1498ZM76.7628 8.74984V16.2498H76.9628V8.74984H76.7628ZM80.1998 16.3498H81.1695V16.1498H80.1998V16.3498ZM80.0998 9.67484V16.2498H80.2998V9.67484H80.0998ZM78.0843 9.77484H80.1998V9.57484H78.0843V9.77484ZM77.9843 8.74984V9.67484H78.1843V8.74984H77.9843ZM83.2724 8.64984H78.0843V8.84984H83.2724V8.64984ZM83.3724 9.67484V8.74984H83.1724V9.67484H83.3724ZM81.1695 9.77484H83.2724V9.57484H81.1695V9.77484ZM81.2695 16.2498V9.67484H81.0695V16.2498H81.2695ZM95.588 8.84984H96.7717V8.64984H95.588V8.84984ZM95.688 16.2498V8.74984H95.488V16.2498H95.688ZM96.5702 16.1498H95.588V16.3498H96.5702V16.1498ZM96.4702 10.1373V16.2498H96.6702V10.1373H96.4702ZM100.496 16.1966L96.6549 10.0841L96.4855 10.1905L100.326 16.303L100.496 16.1966ZM101.418 16.1498H100.411V16.3498H101.418V16.1498ZM101.318 8.74984V16.2498H101.518V8.74984H101.318ZM100.449 8.84984H101.418V8.64984H100.449V8.84984ZM100.549 14.5873V8.74984H100.349V14.5873H100.549ZM96.6871 8.80314L100.364 14.6406L100.533 14.534L96.8563 8.69654L96.6871 8.80314ZM92.3192 14.5787C91.2231 15.6622 89.4506 15.6622 88.3546 14.5787L88.214 14.721C89.3879 15.8814 91.2858 15.8814 92.4598 14.721L92.3192 14.5787ZM92.3156 10.4173C93.3954 11.5989 93.3954 13.4008 92.3156 14.5824L92.4633 14.7173C93.6129 13.4593 93.6129 11.5404 92.4633 10.2824L92.3156 10.4173ZM88.3546 10.421C89.4506 9.33751 91.2231 9.33751 92.3192 10.421L92.4598 10.2787C91.2858 9.11826 89.3879 9.11826 88.214 10.2787L88.3546 10.421ZM88.3581 14.5824C87.2783 13.4008 87.2783 11.5989 88.3581 10.4173L88.2105 10.2824C87.0608 11.5404 87.0608 13.4593 88.2105 14.7173L88.3581 14.5824Z" fill="white"/>
<path d="M13.5598 9.42539C13.1494 9.91428 12.9422 10.5401 12.9806 11.1754V38.8254C12.9422 39.4606 13.1494 40.0865 13.5598 40.5754L13.648 40.6629L29.2502 25.1879V24.8254L13.648 9.33789L13.5598 9.42539Z" fill="url(#paint0_linear_1276_12228)"/>
<path d="M34.4132 30.3504L29.2502 25.1879V24.8254L34.4132 19.6504L34.5265 19.7129L40.7095 23.2004C42.4725 24.1879 42.4725 25.8129 40.7095 26.8129L34.5517 30.2879L34.4132 30.3504Z" fill="url(#paint1_linear_1276_12228)"/>
<path d="M34.5643 30.275L29.2502 25L13.5598 40.575C14.3012 41.2219 15.4014 41.2534 16.1791 40.65L34.5769 30.275" fill="url(#paint2_linear_1276_12228)"/>
<path d="M34.5643 19.7252L16.1665 9.35019C15.3888 8.74678 14.2886 8.77828 13.5472 9.42519L29.2502 25.0002L34.5643 19.7252Z" fill="url(#paint3_linear_1276_12228)"/>
<path opacity="0.2" d="M34.4131 30.1626L16.1665 40.4751C15.4198 41.0293 14.3947 41.0293 13.648 40.4751L13.5598 40.5626L13.648 40.6501C14.3932 41.2084 15.4212 41.2084 16.1665 40.6501L34.5643 30.2751L34.4131 30.1626Z" fill="black"/>
<path opacity="0.12" fill-rule="evenodd" clip-rule="evenodd" d="M34.4132 30.1625L40.7095 26.625C41.3601 26.3062 41.8252 25.706 41.9687 25C41.9038 25.7805 41.4236 26.467 40.7095 26.8L34.5265 30.275L34.4132 30.1625ZM12.9778 38.8933C12.9986 39.4433 13.202 39.9737 13.5598 40.4L13.648 40.5L13.5598 40.5875C13.1614 40.1129 12.9546 39.5093 12.9778 38.8933ZM12.9778 38.8933C12.9785 38.8747 12.9795 38.8561 12.9806 38.8375V38.65C12.9757 38.7314 12.9748 38.8126 12.9778 38.8933Z" fill="black"/>
<path opacity="0.25" d="M16.1665 9.52504L40.7095 23.375C41.3602 23.6938 41.8252 24.294 41.9688 25C41.9039 24.2195 41.4236 23.533 40.7095 23.2L16.1665 9.35004C14.4036 8.36254 12.968 9.18754 12.968 11.1875V11.375C13.0058 9.36254 14.4162 8.53754 16.1665 9.52504Z" fill="white"/>
<defs>
<linearGradient id="paint0_linear_1276_12228" x1="22.4165" y1="-9.44833" x2="-2.54196" y2="-2.7614" gradientUnits="userSpaceOnUse">
<stop stop-color="#00A0FF"/>
<stop offset="0.01" stop-color="#00A1FF"/>
<stop offset="0.26" stop-color="#00BEFF"/>
<stop offset="0.51" stop-color="#00D2FF"/>
<stop offset="0.76" stop-color="#00DFFF"/>
<stop offset="1" stop-color="#00E3FF"/>
</linearGradient>
<linearGradient id="paint1_linear_1276_12228" x1="43.0139" y1="12.25" x2="12.5525" y2="12.25" gradientUnits="userSpaceOnUse">
<stop stop-color="#FFE000"/>
<stop offset="0.41" stop-color="#FFBD00"/>
<stop offset="0.78" stop-color="#FFA500"/>
<stop offset="1" stop-color="#FF9C00"/>
</linearGradient>
<linearGradient id="paint2_linear_1276_12228" x1="13.0988" y1="16.9094" x2="-6.75124" y2="50.5463" gradientUnits="userSpaceOnUse">
<stop stop-color="#FF3A44"/>
<stop offset="1" stop-color="#C31162"/>
</linearGradient>
<linearGradient id="paint3_linear_1276_12228" x1="1.30727" y1="5.12019" x2="10.1674" y2="20.1407" gradientUnits="userSpaceOnUse">
<stop stop-color="#32A071"/>
<stop offset="0.07" stop-color="#2DA771"/>
<stop offset="0.48" stop-color="#15CF74"/>
<stop offset="0.8" stop-color="#06E775"/>
<stop offset="1" stop-color="#00F076"/>
</linearGradient>
</defs>
</svg>
