<svg width="152" height="50" viewBox="0 0 152 50" fill="none" xmlns="http://www.w3.org/2000/svg">
<path d="M139.402 0.0001625H12.6043C12.1421 0.0001625 11.6855 0.0001625 11.2245 0.0026625C10.8386 0.0051625 10.4558 0.012425 10.0663 0.0185375C9.21991 0.0284148 8.37555 0.102258 7.54051 0.239425C6.70665 0.379578 5.89891 0.643807 5.14461 1.02318C4.39124 1.40575 3.70285 1.90287 3.10444 2.4965C2.50288 3.08846 2.00144 3.77268 1.61939 4.52286C1.23629 5.27155 0.970644 6.07384 0.831632 6.90201C0.691298 7.72914 0.615784 8.56581 0.605765 9.40451C0.594069 9.78776 0.592833 10.1723 0.58667 10.5556V39.4484C0.592833 39.8365 0.594069 40.2125 0.605765 40.6008C0.615787 41.4394 0.691301 42.2761 0.831632 43.1032C0.97026 43.9318 1.23592 44.7346 1.61939 45.4835C2.00127 46.2313 2.50278 46.9127 3.10444 47.5014C3.70059 48.0977 4.38941 48.5951 5.14461 48.9748C5.89891 49.3552 6.70656 49.621 7.54051 49.7633C8.37569 49.8994 9.21997 49.9732 10.0663 49.9843C10.4558 49.9928 10.8386 49.9977 11.2245 49.9977C11.6855 50.0002 12.1422 50.0002 12.6043 50.0002H139.402C139.855 50.0002 140.316 50.0002 140.769 49.9977C141.153 49.9977 141.547 49.9928 141.931 49.9843C142.775 49.9738 143.618 49.8999 144.451 49.7633C145.288 49.62 146.099 49.3542 146.857 48.9748C147.611 48.5949 148.299 48.0975 148.895 47.5014C149.495 46.9104 149.998 46.2295 150.384 45.4835C150.765 44.734 151.028 43.9313 151.165 43.1032C151.305 42.276 151.383 41.4395 151.399 40.6008C151.403 40.2125 151.403 39.8365 151.403 39.4484C151.413 38.9943 151.413 38.5427 151.413 38.0812V11.9203C151.413 11.4626 151.413 11.0085 151.403 10.5556C151.403 10.1723 151.403 9.78776 151.399 9.40446C151.383 8.56569 151.305 7.72921 151.165 6.90196C151.028 6.07426 150.764 5.27204 150.384 4.52281C149.606 3.01916 148.372 1.79519 146.857 1.02306C146.099 0.644622 145.288 0.380463 144.451 0.239312C143.618 0.101541 142.775 0.0276722 141.931 0.0183625C141.547 0.0122625 141.153 0.0049375 140.769 0.0025C140.316 0 139.855 0 139.402 0V0.0001625Z" fill="#A6A6A6"/>
<path d="M11.2307 48.9062C10.8466 48.9062 10.4719 48.9014 10.0909 48.8929C9.30158 48.8827 8.51413 48.8145 7.73498 48.689C7.00847 48.5649 6.30467 48.3341 5.6468 48.0041C4.99496 47.6769 4.40044 47.2478 3.886 46.7334C3.36411 46.225 2.92961 45.6353 2.59973 44.9878C2.26621 44.336 2.03539 43.6374 1.91532 42.9162C1.78566 42.1414 1.7155 41.3579 1.70546 40.5725C1.69747 40.3089 1.68701 39.4311 1.68701 39.4311V10.5554C1.68701 10.5554 1.69815 9.69116 1.70553 9.43725C1.71514 8.6531 1.78489 7.87082 1.91416 7.09716C2.03446 6.37406 2.26545 5.67344 2.59915 5.01954C2.92782 4.37243 3.35991 3.78233 3.87865 3.2721C4.39681 2.75703 4.99324 2.32576 5.64618 1.99401C6.30254 1.66512 7.00501 1.43592 7.73005 1.31409C8.51176 1.1873 9.30195 1.11875 10.094 1.10901L11.2313 1.09375H140.762L141.913 1.10963C142.698 1.11887 143.481 1.18681 144.256 1.31286C144.988 1.43622 145.698 1.66702 146.362 1.99768C147.67 2.66623 148.734 3.72395 149.406 5.02259C149.734 5.67197 149.961 6.36688 150.08 7.08374C150.211 7.86374 150.284 8.65217 150.299 9.44275C150.303 9.79675 150.303 10.177 150.303 10.5554C150.313 11.0242 150.313 11.4703 150.313 11.9202V38.081C150.313 38.5351 150.313 38.9782 150.303 39.425C150.303 39.8315 150.303 40.2039 150.298 40.5871C150.283 41.3636 150.211 42.138 150.083 42.904C149.965 43.6303 149.735 44.3344 149.402 44.9915C149.07 45.632 148.638 46.2166 148.122 46.7236C147.607 47.2409 147.011 47.6724 146.358 48.0018C145.696 48.3342 144.987 48.5659 144.256 48.689C143.477 48.8152 142.689 48.8834 141.9 48.8929C141.531 48.9014 141.144 48.9062 140.769 48.9062L139.402 48.9087L11.2307 48.9062Z" fill="black"/>
<path fill-rule="evenodd" clip-rule="evenodd" d="M94.7136 36.3452C92.6531 36.3452 91.1453 35.3345 90.9717 33.7952L88.574 33.7951C88.7254 36.6027 91.0689 38.3789 94.54 38.3789C98.2499 38.3789 100.582 36.56 100.582 33.656C100.582 31.3855 99.2481 30.1062 96.0368 29.353L94.3123 28.9331C92.2949 28.4387 91.4702 27.793 91.4702 26.6956C91.4702 25.3186 92.7614 24.3726 94.6483 24.3726C96.5353 24.3726 97.8265 25.3076 97.968 26.8567H100.333C100.256 24.1785 97.9889 22.3389 94.6816 22.3389C91.3398 22.3389 88.9863 24.1785 88.9863 26.8567C88.9863 29.0198 90.3206 30.3528 93.1947 31.0413L95.2232 31.5259C97.2517 32.0203 98.1084 32.7417 98.1084 33.9465C98.1084 35.3345 96.6879 36.3452 94.7136 36.3452ZM53.9052 33.9246H47.9391L46.5064 38.1202H43.9794L49.6303 22.5977H52.2558L57.9067 38.1202H55.3366L53.9052 33.9246ZM48.557 31.9886H53.2861L50.9548 25.1795H50.8896L48.557 31.9886ZM65.3486 38.2386C68.2128 38.2386 70.1109 35.9791 70.1109 32.4622C70.1109 28.9551 68.2017 26.6846 65.3055 26.6846C63.8152 26.637 62.4192 27.4057 61.672 28.6854H61.6289V26.803H59.3616V41.8641H61.7039V36.2586H61.7581C62.4735 37.5464 63.8681 38.3154 65.3486 38.2386ZM67.7033 32.4622C67.7033 30.171 66.5093 28.6646 64.6876 28.6646C62.8979 28.6646 61.6941 30.2027 61.6941 32.4622C61.6941 34.7425 62.8979 36.2696 64.6876 36.2696C66.5093 36.2696 67.7033 34.7742 67.7033 32.4622ZM77.9085 38.2386C80.7727 38.2386 82.6707 35.9791 82.6707 32.4622C82.6707 28.9551 80.7616 26.6846 77.8653 26.6846C76.375 26.637 74.979 27.4057 74.2318 28.6854H74.1887V26.803H71.9214V41.8641H74.2638V36.2586H74.318C75.0334 37.5464 76.4279 38.3154 77.9085 38.2386ZM80.2631 32.4622C80.2631 30.171 79.0692 28.6646 77.2475 28.6646C75.4578 28.6646 74.254 30.2027 74.254 32.4622C74.254 34.7425 75.4578 36.2696 77.2475 36.2696C79.0692 36.2696 80.2631 34.7742 80.2631 32.4622ZM105.638 24.1248V26.803H107.808V28.6426H105.638V34.8817C105.638 35.8509 106.072 36.3026 107.026 36.3026C107.284 36.2981 107.541 36.2802 107.797 36.2488V38.0774C107.368 38.1569 106.932 38.1929 106.496 38.1848C104.185 38.1848 103.284 37.3242 103.284 35.1294V28.6426H101.625V26.803H103.284V24.1248H105.638ZM114.477 26.6639C111.179 26.6639 109.064 28.9014 109.064 32.4622C109.064 36.0328 111.158 38.2606 114.477 38.2606C117.796 38.2606 119.89 36.0328 119.89 32.4622C119.89 28.9014 117.785 26.6639 114.477 26.6639ZM117.503 32.4622C117.503 30.0196 116.375 28.578 114.477 28.578C112.579 28.578 111.451 30.0306 111.451 32.4622C111.451 34.9146 112.579 36.3453 114.477 36.3453C116.375 36.3453 117.503 34.9146 117.503 32.4622ZM124.055 26.803H121.821L121.821 38.1202H124.164V31.4075C124.086 30.7284 124.311 30.0494 124.78 29.5488C125.249 29.0482 125.916 28.7761 126.604 28.8038C126.961 28.7935 127.316 28.8409 127.657 28.9441V26.7713C127.393 26.7128 127.124 26.6837 126.854 26.6846C125.567 26.6359 124.421 27.4893 124.109 28.7293H124.055V26.803ZM138.456 34.7962C138.141 36.8506 136.124 38.2606 133.543 38.2606C130.223 38.2606 128.163 36.0547 128.163 32.5159C128.163 28.9661 130.234 26.6639 133.444 26.6639C136.602 26.6639 138.587 28.8148 138.587 32.2462V33.0421H130.527V33.1824C130.452 34.025 130.745 34.859 131.333 35.4723C131.92 36.0856 132.745 36.4191 133.597 36.388C134.734 36.4936 135.805 35.8463 136.232 34.7962L138.456 34.7962ZM136.243 31.4185H130.538C130.536 30.6544 130.842 29.9212 131.388 29.3819C131.934 28.8425 132.674 28.5416 133.444 28.5462C134.209 28.5299 134.945 28.8306 135.477 29.3759C136.008 29.9211 136.286 30.6614 136.243 31.4185Z" fill="white"/>
<path fill-rule="evenodd" clip-rule="evenodd" d="M75.0694 10.5464H76.1895V18.3723H75.0694V10.5464ZM50.9173 11.9362C50.2318 11.2183 49.2578 10.8431 48.2634 10.9139H45.5469V18.3724H48.2634C50.5036 18.3724 51.8022 17.0027 51.8022 14.6199C51.9276 13.6391 51.6028 12.6541 50.9173 11.9362ZM48.1329 17.3176H46.715V11.9679H48.1329C48.8398 11.929 49.5272 12.2054 50.0072 12.7216C50.4871 13.2377 50.7094 13.9395 50.6131 14.6351C50.7169 15.3336 50.4978 16.0413 50.0167 16.5617C49.5355 17.0821 48.8436 17.3598 48.1329 17.3176ZM53.1217 15.5556C53.0244 14.5467 53.5122 13.5703 54.3805 13.0359C55.2488 12.5015 56.3476 12.5015 57.2159 13.0359C58.0843 13.5703 58.5721 14.5467 58.4748 15.5556C58.5739 16.5655 58.0866 17.5438 57.2175 18.0794C56.3483 18.6149 55.2481 18.6149 54.379 18.0794C53.5099 17.5438 53.0225 16.5655 53.1217 15.5556ZM55.8001 13.622C56.77 13.622 57.3226 14.3355 57.3226 15.5556H57.3227C57.3227 16.7805 56.77 17.4934 55.8001 17.4934C54.8265 17.4934 54.2787 16.7854 54.2787 15.5556C54.2787 14.3355 54.8264 13.622 55.8001 13.622ZM65.5904 18.3723H64.4285L63.2555 14.2268H63.1669L61.9988 18.3723H60.8479L59.2835 12.7437H60.4196L61.4363 17.0387H61.52L62.6868 12.7437H63.7614L64.9283 17.0387H65.0169L66.0286 12.7437H67.1487L65.5904 18.3723ZM69.5428 12.7437H68.4646L68.4645 18.3723H69.5846V15.0795C69.5444 14.7049 69.6712 14.3316 69.9317 14.0574C70.1922 13.7832 70.5604 13.6356 70.9398 13.6531C71.7682 13.6531 72.1646 14.1029 72.1646 15.0075V18.3723H73.2847V14.7285C73.3668 14.1782 73.1921 13.6207 72.8099 13.2134C72.4277 12.8061 71.8796 12.5933 71.3202 12.635C70.5977 12.5768 69.9176 12.9795 69.6265 13.6378H69.5428V12.7437ZM79.0056 13.0358C78.1372 13.5702 77.6493 14.5466 77.7466 15.5556C77.6475 16.5656 78.135 17.5438 79.0041 18.0794C79.8733 18.6149 80.9736 18.6149 81.8427 18.0794C82.7119 17.5438 83.1993 16.5656 83.1003 15.5556C83.1975 14.5466 82.7096 13.5702 81.8412 13.0358C80.9728 12.5014 79.874 12.5014 79.0056 13.0358ZM81.9475 15.5556C81.9475 14.3355 81.3949 13.622 80.425 13.622C79.4513 13.622 78.9036 14.3355 78.9036 15.5556C78.9036 16.7854 79.4514 17.4934 80.425 17.4934C81.3949 17.4934 81.9476 16.7805 81.9475 15.5556ZM86.3904 15.1002C85.0401 15.1832 84.2795 15.7673 84.2795 16.7805C84.2814 17.2609 84.4881 17.7181 84.8485 18.0391C85.209 18.36 85.6895 18.5148 86.1713 18.4651C86.8586 18.4966 87.5099 18.159 87.8761 17.5813H87.9647V18.3723H89.0429V14.5265C89.0429 13.3375 88.2404 12.635 86.8175 12.635C85.53 12.635 84.613 13.2551 84.4986 14.2219H85.583C85.7073 13.824 86.1405 13.5963 86.7658 13.5963C87.5314 13.5963 87.9278 13.932 87.9278 14.5265V15.0123L86.3904 15.1002ZM87.9278 16.2996V15.829L86.5418 15.9169C85.7602 15.9688 85.4057 16.2324 85.4057 16.7286C85.4057 17.2352 85.8488 17.53 86.4581 17.53C86.8189 17.5662 87.179 17.4557 87.456 17.2238C87.733 16.9918 87.9033 16.6583 87.9278 16.2996ZM92.871 12.6503C91.437 12.6503 90.5151 13.777 90.5151 15.5556C90.5151 17.3384 91.4272 18.4651 92.871 18.4651C93.603 18.4918 94.2895 18.1136 94.6533 17.483H94.7419V18.3723H95.8152V10.5464H94.6951V13.6378H94.6114C94.2732 13.002 93.595 12.6172 92.871 12.6503ZM91.6721 15.5556C91.6721 16.7494 92.2396 17.4678 93.1886 17.4678C94.1326 17.4678 94.7161 16.739 94.7161 15.5604C94.7161 14.3873 94.1265 13.6482 93.1886 13.6482C92.2457 13.6482 91.6721 14.3715 91.6721 15.5556H91.6721ZM101.708 13.0359C100.84 13.5703 100.352 14.5467 100.449 15.5556C100.35 16.5655 100.838 17.5438 101.707 18.0794C102.576 18.6149 103.676 18.6149 104.545 18.0794C105.414 17.5438 105.902 16.5655 105.803 15.5556C105.9 14.5467 105.412 13.5703 104.544 13.0359C103.675 12.5015 102.577 12.5015 101.708 13.0359ZM104.65 15.5556C104.65 14.3355 104.098 13.622 103.128 13.622C102.154 13.622 101.607 14.3355 101.607 15.5556C101.607 16.7854 102.154 17.4934 103.128 17.4934C104.098 17.4934 104.65 16.7805 104.65 15.5556ZM108.384 12.7437H107.305V18.3723H108.426V15.0795C108.385 14.7049 108.512 14.3316 108.773 14.0574C109.033 13.7832 109.401 13.6356 109.781 13.6531C110.609 13.6531 111.005 14.1029 111.005 15.0075V18.3723H112.126V14.7285C112.208 14.1782 112.033 13.6207 111.651 13.2134C111.269 12.8061 110.72 12.5933 110.161 12.635C109.439 12.5768 108.758 12.9795 108.467 13.6378H108.384V12.7437ZM118.455 11.3423V12.7693H119.684V13.705H118.455V16.5993C118.455 17.1889 118.7 17.447 119.257 17.447C119.4 17.4466 119.543 17.438 119.684 17.4214V18.3467C119.483 18.3824 119.279 18.4014 119.075 18.4034C117.829 18.4034 117.333 17.9689 117.333 16.8837V13.7049H116.432V12.7692H117.333V11.3423H118.455ZM122.325 10.5464H121.214L121.214 18.3723H122.334V15.0849C122.3 14.6987 122.439 14.317 122.714 14.0419C122.99 13.7668 123.374 13.6263 123.764 13.6579C124.555 13.6579 124.977 14.1133 124.977 15.0123V18.3723H126.098V14.7383C126.173 14.1908 125.997 13.639 125.619 13.2332C125.241 12.8274 124.7 12.6099 124.144 12.6399C123.41 12.5809 122.718 12.9841 122.413 13.6482H122.325V10.5464ZM132.629 16.8525C132.315 17.9143 131.279 18.6003 130.17 18.481C129.413 18.5008 128.686 18.1897 128.181 17.6302C127.676 17.0707 127.445 16.3195 127.548 15.5757C127.448 14.8299 127.678 14.0774 128.18 13.5132C128.682 12.949 129.407 12.6286 130.165 12.635C131.744 12.635 132.697 13.705 132.697 15.4725V15.8601H128.689V15.9224C128.654 16.3401 128.798 16.7532 129.086 17.0602C129.373 17.3672 129.778 17.5395 130.201 17.5349C130.749 17.6001 131.282 17.3306 131.551 16.8525L132.629 16.8525ZM131.556 15.0386H128.689C128.684 14.6505 128.838 14.2767 129.114 14.0022C129.391 13.7277 129.768 13.5756 130.159 13.5805C130.545 13.5717 130.917 13.725 131.183 14.0027C131.449 14.2804 131.585 14.6566 131.556 15.0386Z" fill="white"/>
<path fill-rule="evenodd" clip-rule="evenodd" d="M29.7676 10.9004C29.8896 12.4807 29.3857 14.0459 28.3628 15.2637C27.3704 16.4877 25.8668 17.1928 24.2831 17.1766C24.1824 15.6418 24.701 14.1303 25.7247 12.9749C26.7614 11.8039 28.2049 11.0632 29.7676 10.9004ZM34.7761 20.1858C32.9544 21.2965 31.8334 23.2553 31.8058 25.3759C31.8084 27.7751 33.2572 29.9403 35.4853 30.8749C35.0568 32.2554 34.4108 33.5601 33.5714 34.7405C32.4441 36.4129 31.2622 38.0467 29.3862 38.0769C28.494 38.0973 27.8917 37.8429 27.2642 37.5778C26.6096 37.3012 25.9275 37.0131 24.86 37.0131C23.728 37.0131 23.0153 37.3105 22.328 37.5974C21.734 37.8453 21.159 38.0853 20.3485 38.1187C18.5619 38.1843 17.1965 36.3337 16.0283 34.677C13.6932 31.2938 11.8749 25.1425 14.3126 20.9569C15.4573 18.917 17.5975 17.6225 19.9503 17.5471C20.9636 17.5264 21.9359 17.9137 22.7884 18.2533C23.4403 18.513 24.0221 18.7448 24.4985 18.7448C24.9174 18.7448 25.4829 18.5221 26.1421 18.2627C27.1804 17.854 28.4509 17.354 29.7455 17.4887C31.7573 17.5512 33.6216 18.5507 34.7761 20.1858Z" fill="white"/>
</svg>
