<?xml version="1.0" encoding="UTF-8"?>
<svg xmlns="http://www.w3.org/2000/svg" xmlns:xlink="http://www.w3.org/1999/xlink" width="653px" height="200px" viewBox="0 0 653 200" version="1.1">
<defs>
<clipPath id="clip1">
  <path d="M 0 43 L 181 43 L 181 195.960938 L 0 195.960938 Z M 0 43 "/>
</clipPath>
</defs>
<g id="surface1">
<path style=" stroke:none;fill-rule:nonzero;fill:rgb(47.45098%,33.72549%,84.705882%);fill-opacity:1;" d="M 265.875 91.949219 L 290.566406 91.949219 C 291.996094 91.949219 293.15625 92.425781 294.082031 93.347656 C 295.003906 94.273438 295.480469 95.464844 295.480469 96.863281 L 295.480469 102.316406 C 295.480469 103.746094 295.003906 104.90625 294.082031 105.828125 C 293.15625 106.753906 291.964844 107.230469 290.566406 107.230469 L 265.875 107.230469 L 265.875 135.289062 C 265.875 136.71875 265.398438 137.878906 264.476562 138.804688 C 263.554688 139.726562 262.363281 140.203125 260.960938 140.203125 L 254.5 140.203125 C 253.070312 140.203125 251.90625 139.726562 250.984375 138.804688 C 250.0625 137.878906 249.585938 136.6875 249.585938 135.289062 L 249.585938 64.964844 C 249.585938 63.535156 250.0625 62.371094 250.984375 61.449219 C 251.90625 60.523438 253.097656 60.046875 254.5 60.046875 L 301.050781 60.046875 C 302.480469 60.046875 303.640625 60.523438 304.566406 61.449219 C 305.488281 62.371094 305.964844 63.5625 305.964844 64.964844 L 305.964844 70.472656 C 305.964844 71.902344 305.488281 73.066406 304.566406 73.988281 C 303.640625 74.910156 302.449219 75.386719 301.050781 75.386719 L 265.875 75.386719 Z M 265.875 91.949219 "/>
<path style=" stroke:none;fill-rule:nonzero;fill:rgb(47.45098%,33.72549%,84.705882%);fill-opacity:1;" d="M 319.128906 138.804688 C 318.207031 137.878906 317.730469 136.6875 317.730469 135.289062 L 317.730469 64.964844 C 317.730469 63.535156 318.207031 62.371094 319.128906 61.449219 C 320.050781 60.523438 321.242188 60.046875 322.644531 60.046875 L 329.226562 60.046875 C 330.65625 60.046875 331.816406 60.523438 332.738281 61.449219 C 333.664062 62.371094 334.140625 63.5625 334.140625 64.964844 L 334.140625 124.863281 L 371.605469 124.863281 C 373.035156 124.863281 374.199219 125.339844 375.121094 126.261719 C 376.042969 127.1875 376.519531 128.378906 376.519531 129.777344 L 376.519531 135.289062 C 376.519531 136.71875 376.042969 137.878906 375.121094 138.804688 C 374.199219 139.726562 373.007812 140.203125 371.605469 140.203125 L 322.644531 140.203125 C 321.242188 140.203125 320.050781 139.726562 319.128906 138.804688 Z M 319.128906 138.804688 "/>
<path style=" stroke:none;fill-rule:nonzero;fill:rgb(47.45098%,33.72549%,84.705882%);fill-opacity:1;" d="M 405.917969 91.949219 L 435.792969 92.070312 C 437.21875 92.070312 438.382812 92.515625 439.304688 93.4375 C 440.199219 94.363281 440.671875 95.523438 440.671875 96.953125 L 440.671875 102.40625 C 440.671875 103.835938 440.199219 104.996094 439.273438 105.917969 C 438.351562 106.84375 437.160156 107.320312 435.757812 107.320312 L 405.945312 107.199219 L 405.945312 124.894531 L 443.414062 124.894531 C 444.84375 124.894531 446.007812 125.371094 446.929688 126.292969 C 447.851562 127.214844 448.328125 128.40625 448.328125 129.808594 L 448.328125 135.320312 C 448.328125 136.746094 447.851562 137.910156 446.929688 138.832031 C 446.007812 139.757812 444.816406 140.234375 443.414062 140.234375 L 394.449219 140.234375 C 393.019531 140.234375 391.859375 139.757812 390.9375 138.832031 C 390.011719 137.910156 389.535156 136.71875 389.535156 135.320312 L 389.535156 64.992188 C 389.535156 63.5625 389.984375 62.402344 390.9375 61.476562 C 391.859375 60.554688 393.050781 60.078125 394.449219 60.078125 L 443.503906 60.019531 C 444.933594 60.019531 446.097656 60.496094 447.019531 61.417969 C 447.941406 62.34375 448.417969 63.535156 448.417969 64.933594 L 448.417969 70.445312 C 448.417969 71.875 447.941406 73.035156 447.019531 73.957031 C 446.097656 74.882812 444.90625 75.359375 443.503906 75.359375 L 405.945312 75.359375 L 405.945312 91.949219 Z M 405.917969 91.949219 "/>
<path style=" stroke:none;fill-rule:nonzero;fill:rgb(47.45098%,33.72549%,84.705882%);fill-opacity:1;" d="M 519.960938 138.476562 L 500.390625 111.699219 L 480.824219 138.476562 C 479.960938 139.605469 478.855469 140.171875 477.519531 140.171875 L 472.660156 140.171875 C 470.695312 140.171875 469.121094 139.605469 467.925781 138.476562 C 466.734375 137.34375 466.140625 135.945312 466.140625 134.304688 C 466.140625 132.816406 466.617188 131.414062 467.570312 130.074219 L 490.710938 98.503906 L 469.980469 70.117188 C 468.730469 68.417969 468.101562 66.632812 468.101562 64.785156 C 468.101562 63.382812 468.492188 62.253906 469.238281 61.359375 C 469.980469 60.464844 471.023438 60.019531 472.335938 60.019531 L 479.871094 60.019531 C 481.269531 60.019531 482.371094 60.585938 483.175781 61.714844 L 500.390625 85.1875 L 517.605469 61.714844 C 518.4375 60.585938 519.539062 60.019531 520.910156 60.019531 L 525.675781 60.019531 C 527.640625 60.019531 529.21875 60.585938 530.441406 61.746094 C 531.664062 62.90625 532.261719 64.308594 532.261719 65.945312 C 532.261719 67.40625 531.78125 68.804688 530.828125 70.117188 L 510.097656 98.503906 L 533.238281 130.074219 C 534.195312 131.386719 534.671875 132.816406 534.671875 134.304688 C 534.671875 135.945312 534.078125 137.34375 532.882812 138.476562 C 531.691406 139.605469 530.113281 140.171875 528.144531 140.171875 L 523.292969 140.171875 C 521.921875 140.203125 520.820312 139.636719 519.960938 138.476562 Z M 519.960938 138.476562 "/>
<path style=" stroke:none;fill-rule:nonzero;fill:rgb(47.45098%,33.72549%,84.705882%);fill-opacity:1;" d="M 606.332031 138.476562 L 586.761719 111.699219 L 567.195312 138.476562 C 566.332031 139.605469 565.230469 140.171875 563.890625 140.171875 L 559.035156 140.171875 C 557.066406 140.171875 555.492188 139.605469 554.300781 138.476562 C 553.105469 137.34375 552.511719 135.945312 552.511719 134.304688 C 552.511719 132.816406 552.988281 131.414062 553.941406 130.074219 L 577.082031 98.503906 L 556.351562 70.117188 C 555.101562 68.417969 554.480469 66.632812 554.480469 64.785156 C 554.480469 63.382812 554.863281 62.253906 555.609375 61.359375 C 556.351562 60.464844 557.398438 60.019531 558.707031 60.019531 L 566.242188 60.019531 C 567.640625 60.019531 568.742188 60.585938 569.546875 61.714844 L 586.761719 85.1875 L 603.976562 61.714844 C 604.8125 60.585938 605.914062 60.019531 607.28125 60.019531 L 612.046875 60.019531 C 614.011719 60.019531 615.589844 60.585938 616.8125 61.746094 C 618.035156 62.90625 618.632812 64.308594 618.632812 65.945312 C 618.632812 67.40625 618.152344 68.804688 617.199219 70.117188 L 596.46875 98.503906 L 619.609375 130.074219 C 620.566406 131.386719 621.042969 132.816406 621.042969 134.304688 C 621.042969 135.945312 620.449219 137.34375 619.257812 138.476562 C 618.066406 139.605469 616.484375 140.171875 614.523438 140.171875 L 609.664062 140.171875 C 608.265625 140.203125 607.164062 139.636719 606.332031 138.476562 Z M 606.332031 138.476562 "/>
<path style=" stroke:none;fill-rule:nonzero;fill:rgb(47.45098%,33.72549%,84.705882%);fill-opacity:1;" d="M 639.300781 138.804688 C 638.375 137.878906 637.898438 136.6875 637.898438 135.289062 L 637.898438 64.902344 C 637.898438 63.472656 638.375 62.3125 639.300781 61.390625 C 640.222656 60.464844 641.414062 59.988281 642.8125 59.988281 L 648.203125 59.988281 C 649.632812 59.988281 650.796875 60.464844 651.71875 61.390625 C 652.640625 62.3125 653.117188 63.503906 653.117188 64.902344 L 653.117188 135.289062 C 653.117188 136.71875 652.640625 137.878906 651.71875 138.804688 C 650.796875 139.726562 649.605469 140.203125 648.203125 140.203125 L 642.8125 140.203125 C 641.382812 140.203125 640.222656 139.726562 639.300781 138.804688 Z M 639.300781 138.804688 "/>
<path style=" stroke:none;fill-rule:nonzero;fill:rgb(47.45098%,33.72549%,84.705882%);fill-opacity:1;" d="M 84.078125 173.949219 C 83.929688 173.863281 83.78125 173.800781 83.691406 173.710938 C 83.839844 173.800781 83.960938 173.863281 84.078125 173.949219 Z M 84.078125 173.949219 "/>
<path style=" stroke:none;fill-rule:nonzero;fill:rgb(47.45098%,33.72549%,84.705882%);fill-opacity:1;" d="M 51.761719 33.417969 C 42.292969 33.449219 35.054688 26.242188 34.996094 16.769531 C 34.90625 7.804688 42.320312 0.445312 51.464844 0.386719 C 60.9375 0.328125 68.324219 7.625 68.261719 16.976562 C 68.144531 26.003906 60.757812 33.417969 51.761719 33.417969 Z M 51.761719 33.417969 "/>
<path style=" stroke:none;fill-rule:nonzero;fill:rgb(47.45098%,33.72549%,84.705882%);fill-opacity:1;" d="M 129.410156 33.179688 C 120.59375 33.300781 113.207031 26.0625 113.027344 17.1875 C 112.878906 8.101562 120.265625 0.59375 129.378906 0.625 C 138.222656 0.65625 145.519531 8.011719 145.519531 16.859375 C 145.519531 25.675781 138.222656 33.0625 129.410156 33.179688 Z M 129.410156 33.179688 "/>
<path style=" stroke:none;fill-rule:nonzero;fill:rgb(47.45098%,33.72549%,84.705882%);fill-opacity:1;" d="M 83.722656 173.710938 C 83.839844 173.773438 83.960938 173.863281 84.109375 173.949219 C 83.929688 173.863281 83.808594 173.773438 83.722656 173.710938 Z M 83.722656 173.710938 "/>
<g clip-path="url(#clip1)" clip-rule="nonzero">
<path style=" stroke:none;fill-rule:nonzero;fill:rgb(47.45098%,33.72549%,84.705882%);fill-opacity:1;" d="M 180.605469 108.867188 C 178.609375 124.921875 170.421875 139.785156 159.757812 151.851562 C 153.769531 158.671875 147.398438 164.746094 140.667969 170.167969 C 140.128906 170.554688 139.59375 170.914062 139.089844 171.300781 C 126.757812 179.757812 114.070312 187.085938 100.460938 193.253906 C 99.238281 193.820312 97.988281 194.355469 96.765625 194.890625 C 94.859375 195.726562 92.714844 196.023438 90.570312 195.933594 C 88.488281 195.84375 86.371094 195.398438 84.4375 194.710938 C 83.15625 194.234375 81.902344 193.757812 80.652344 193.28125 C 65.792969 187.472656 52.476562 179.878906 40.445312 170.199219 C 33.683594 164.777344 27.339844 158.699219 21.355469 151.878906 C 10.722656 139.785156 2.5 124.921875 0.507812 108.898438 C 0.148438 106.039062 0 103.148438 0.0585938 100.261719 C 0.328125 87.988281 4.46875 75.476562 11.703125 65.351562 C 15.128906 60.464844 19.300781 56.175781 24.125 52.691406 C 24.15625 52.660156 24.183594 52.660156 24.214844 52.632812 C 26.386719 51.054688 28.710938 49.683594 31.125 48.492188 C 38.808594 44.679688 47.476562 42.980469 56.140625 43.070312 L 56.230469 43.070312 C 62.632812 43.128906 69.039062 44.203125 75.023438 46.078125 C 77.167969 46.765625 79.28125 47.539062 81.308594 48.402344 C 81.992188 48.699219 84.613281 49.890625 85.179688 50.128906 C 86.996094 50.964844 88.785156 51.859375 90.542969 52.8125 C 92.476562 53.792969 94.355469 54.867188 96.261719 55.910156 C 103.675781 60.019531 111.359375 64.875 119.699219 66.898438 C 119.878906 66.929688 120.085938 66.988281 120.265625 67.019531 C 122.945312 67.644531 125.65625 68.121094 128.367188 68.390625 C 134.621094 69.074219 140.933594 68.804688 147.128906 67.464844 C 147.25 67.4375 147.367188 67.40625 147.488281 67.375 L 147.515625 67.375 C 152.132812 65.796875 154.128906 64.21875 154.128906 64.21875 C 154.128906 64.21875 154.128906 64.1875 154.097656 64.160156 C 154.070312 64.097656 154.007812 64.070312 153.980469 64.011719 C 153.949219 63.980469 153.921875 63.949219 153.890625 63.921875 C 151.804688 61.566406 137.332031 46.613281 106.027344 46.050781 C 105.074219 46.019531 104.0625 46.019531 103.082031 46.050781 C 103.082031 46.050781 112.609375 42.890625 124.820312 43.070312 C 124.851562 43.070312 124.882812 43.070312 124.910156 43.070312 C 129.824219 43.128906 135.214844 43.757812 140.578125 45.335938 C 140.726562 45.363281 140.875 45.394531 141.023438 45.453125 C 145.582031 47.03125 151.359375 49.175781 156.839844 52.660156 C 156.867188 52.691406 156.898438 52.691406 156.929688 52.722656 C 161.367188 55.519531 165.566406 59.214844 168.839844 64.160156 C 169.140625 64.515625 169.320312 64.933594 169.40625 65.351562 C 169.585938 66.15625 169.347656 67.046875 168.753906 67.703125 C 162.320312 74.882812 154.695312 79.796875 145.761719 82.597656 C 143.464844 83.339844 141.054688 83.9375 138.582031 84.382812 C 124.046875 87.09375 106.773438 82.65625 93.488281 76.996094 C 92.476562 76.578125 91.464844 76.132812 90.511719 75.714844 C 78.09375 70.355469 70.199219 66.542969 60.789062 67.019531 C 58.226562 67.136719 55.574219 67.585938 52.6875 68.390625 C 52.328125 68.476562 51.941406 68.597656 51.585938 68.714844 C 43.574219 71.160156 38.539062 76.074219 35.261719 82.566406 C 33.507812 86.050781 32.226562 90.015625 31.242188 94.332031 C 29.992188 99.960938 30.824219 110.121094 32.523438 115.601562 C 41.21875 143.570312 59.566406 159.386719 83.453125 173.59375 C 83.453125 173.59375 83.453125 173.59375 83.484375 173.625 C 83.511719 173.652344 83.570312 173.683594 83.660156 173.710938 C 84.257812 174.070312 84.882812 174.398438 85.507812 174.667969 C 86.820312 175.230469 88.488281 175.769531 90.480469 175.917969 C 92.746094 176.097656 95.425781 175.769531 98.523438 174.429688 C 98.671875 174.367188 98.792969 174.308594 98.941406 174.25 C 98.96875 174.21875 99.03125 174.21875 99.058594 174.1875 C 99.207031 174.128906 99.386719 174.070312 99.535156 173.980469 C 99.566406 173.980469 99.566406 173.980469 99.59375 173.949219 C 121.605469 164.570312 135.066406 158.105469 156.542969 139.25 C 164.136719 132.695312 175.394531 119.710938 180.605469 108.867188 Z M 180.605469 108.867188 "/>
</g>
</g>
</svg>
