<svg width="73" height="45" viewBox="0 0 73 45" fill="none" xmlns="http://www.w3.org/2000/svg">
<g clip-path="url(#clip0_85_74)">
<path d="M59.801 24.3242C57.1805 24.6215 54.7196 25.171 52.2624 25.1274C49.536 25.1234 46.817 24.731 44.1875 23.9623C42.8427 23.5583 41.6959 22.6559 40.9849 21.4423C40.2738 20.2288 40.0531 18.7971 40.3685 17.4444C40.8846 14.4174 43.2022 12.6653 46.5492 12.751C50.8767 12.852 54.6627 14.634 58.1996 17.0485C59.066 17.6443 59.8732 18.3059 60.6646 18.8992C67.0055 17.0827 67.8764 14.9499 68.3169 0.241281C70.7169 -0.0810904 71.4295 1.56892 71.9214 3.37812C73.5626 9.43174 70.6419 17.8409 65.6691 21.4748C65.1617 21.842 64.6414 22.1868 64.028 22.6105C64.3056 23.4677 64.5808 24.1926 64.7878 24.9319C66.2417 30.2857 64.5542 35.3375 59.7905 38.0644C56.9646 39.6102 53.9171 40.7253 50.7472 41.3733C45.3524 42.556 39.8187 42.2366 34.3779 41.2743C27.8074 40.119 21.2807 38.6452 14.7402 37.3217C13.7599 37.1223 12.771 36.9693 11.4898 36.7483C12.4481 38.564 13.3112 40.427 14.0755 42.3295C14.308 43.0159 13.9418 44.5513 13.5621 44.6541C12.7345 44.874 11.7103 44.4289 10.78 44.1986C10.5749 44.1441 10.4287 43.8281 10.2604 43.6224C7.61985 40.4209 4.96753 37.1221 2.23646 33.9475C-0.177815 31.1449 -0.202865 30.179 2.53356 27.839C5.66303 25.2976 9.44703 23.6748 13.4735 23.1473C14.7738 22.93 16.1564 22.9279 16.5591 24.9712C14.2841 27.8784 10.0935 27.6622 6.88829 30.1548C8.25873 30.6079 9.16987 30.9945 10.1164 31.2069C18.2999 33.0121 26.4409 35.0608 34.6977 36.4657C39.2225 37.1478 43.7996 37.3342 48.3468 37.0217C51.2039 36.8023 53.9838 36.0456 56.5406 34.7914C60.7991 32.7483 61.7984 29.1479 59.801 24.3242ZM55.0398 21.0243L55.1958 20.0045C53.1804 18.3973 50.7953 17.3251 48.2682 16.8903C45.8918 16.4748 44.4943 16.9842 44.4961 18.3195C44.4934 20.2364 46.0779 20.6112 47.463 20.7413C49.9254 20.9631 52.475 20.9163 55.0093 20.9968L55.0398 21.0243Z" fill="#7956D8"/>
</g>
<defs>
<clipPath id="clip0_85_74">
<rect width="73" height="45" fill="white"/>
</clipPath>
</defs>
</svg>
